<?xml version="1.0" encoding="utf-8"?>
<!-- Generator: Adobe Illustrator 15.1.0, SVG Export Plug-In . SVG Version: 6.00 Build 0)  -->
<!DOCTYPE svg PUBLIC "-//W3C//DTD SVG 1.1//EN" "http://www.w3.org/Graphics/SVG/1.1/DTD/svg11.dtd">
<svg version="1.1"
	 id="svg2985" inkscape:version="0.48.1 r9760" xmlns:dc="http://purl.org/dc/elements/1.1/" xmlns:cc="http://creativecommons.org/ns#" xmlns:rdf="http://www.w3.org/1999/02/22-rdf-syntax-ns#" xmlns:inkscape="http://www.inkscape.org/namespaces/inkscape" xmlns:svg="http://www.w3.org/2000/svg" xmlns:sodipodi="http://sodipodi.sourceforge.net/DTD/sodipodi-0.dtd"
	 xmlns="http://www.w3.org/2000/svg" xmlns:xlink="http://www.w3.org/1999/xlink" x="0px" y="0px" width="1000px" height="1000px"
	 viewBox="1236.934 -185.962 1000 1000" enable-background="new 1236.934 -185.962 1000 1000" xml:space="preserve">
<path fill="none" stroke="#000000" stroke-width="2" stroke-linecap="round" stroke-linejoin="round" d="M1561.75,226.669
	l-9.31-3.047l12.204-8.831l-9.995-0.852l-4.351-7.946l-10.521-2.25l-11.505,7.304l-10.757,6.836l-12.074-1.483l-16.308-4.203
	l-17.214-9.243l-31.346,3.603l2.709,36.53l-29.392,33.172l33.934,35.362l-27.554,39.888l-69.238,70.874l71.312,55.056l47.289,17.86
	l33.039,2.641l14.751,14.633l22.992-0.48l14.07,7.21l-7.969,19.341l-18.967,17.302l-1.758-24.501l-31.82,9.16l26.913,47.501
	l-47.907,7.789l26.262,63.927l-92.473-5.873l37.973-108.115l-72.949,8.515l-91.896,102.4l-15.968-141.016l-9.256-170.922
	l67.407-66.823l-53.859-151.493l19.033-188.878l136.312,55.834l13.775-83.669l96.22-4.045l84.531,9.634l3.754,58.531l-31.766,16.098
	l-9.303-41.163l-32.525,30.553l-42.667,8.385l23.445,40.674l-42.104,10.379l17.698,36.085l-31.332,18.359l-33.081-31.551
	l-53.786,33.812l-0.433,96.756l54.271-55.236l13.608,37.365l28.481-15.301l-7.252-26.717l19.649-13.422l5.585,23.364l8.75,14.727
	l5.238-27.196l-7.161-24.578l14.538-11.849l11.178-17.716l-4.001-19.29l25.255-6.418l7.596-24.843l20.583-9.48l7.798,27.416
	l-13.137,14.181l-12.975,12.003l-13.502,8.381l-10.21,14.334l-5.542,13.881l-10.33,9.486l6.498,14.085l10.131-9.762l5.928,11.548
	l10.578,4.831l9.28-8.232l10.009,8.068l-8.19,8.321l13.427,4.458l1.715,12.493l-11.521-3.542l-11.159-1.08l-4.998-8.265l-10.049-1.4
	l-9.129-5.138l-13.41,2.654l0.363,15.741l11.932-1.937l11.154,1.829l7.547,6.327l10.198,1.398l11.216,3.426l-7.475,8.472
	l-7.205,9.66l-3.468-11.386l-10.053-3.625l-9.569-1.839l-11.02,4.515l-12.727-2.149l-15.487-1.001l-15.145,10.781l16.423,13.761
	l10.507-7.104l10.452,4.456l10.628-0.863l6.844-8.148l10.579-1.802l0.73,10.211l11.535,6.274l10.086,2.375l1.529-12.028l7.962-9.33
	l6.758-8.83l7.928,8.386l10.962,2.235l-2.756-11.376l-8.237-6.21l0.107-10.368l-1.587-9.762l-5.825-8.564l4.445-8.345l3.024-7.362
	l3.939-6.272l-12.318-0.285l-5.343,10.413l-6.968-9.076l5.327-11.546l11.968,0.059l-2.574-11.407l-11.916-1.647l-9.689,9.354
	l-4.062,11.227l-9.074,6.54l-6.947-12.228l7.53-10.218l10.692-11.113l15.919-8.209l13.166-12.33l2.199,17.71l5.677,13.456
	l-2.981,10.502l7.325,0.97l7.76-1.317l10.184,0.317l-4.674,9.929l10.293,3.544l-7.67,10.464l9.836,2.936l5.434,12.171l-10.977-0.719
	l1.516,13.313l10.223,0.172l-3.951,11.632l8.107,4.588l9.461-3.058l-3.275-10.15l11.555,0.876l-3.313-11.414l-9.764-0.881
	l4.934-10.358l-9.537-4.235l-2.26-11.144l3.033-9.905l-8.414-5.597l-3.078-10.029l14.092,4.504l11.559,2.848l9.557-8.151
	l12.674-2.788l-5.262-10.215l-14.488-2.519l-5.893,10.865l-7.576-11.632l-5.154,11.646l-8.426-6.009l-0.484-10.218l6.563-7.344
	l8.977-2.416l0.678-14.908l-2.672-15.805l-18.529-6.492l1.195,17.377l2.178,12.742l-9.137,9.212l-0.49,12.596l1.992,11.17
	l-8.645,3.297l-4.787-9.844l-1.211-12.358l2.068-14.707l-0.736-15.483l-5.531-19.62l11.746-18.225l21.256,2.858l17.07,10.437
	l10.969,17.645l16.949,6.242l14.982-21.813l-16.514-1.138L1670.143,5.25l-17.41-19.428l12.701-34.684l15.184-51.024l57.057,31.634
	l24.994-42.851l7.559,73.243l20.992,27.292l27.225,17.787l0.07-27.823l1.119-37.194l10.156-47.728l62.139,14.298l78.635-7.731
	l-47.258,57.383l-44.693,5.2l-28.271,14.408l-8.041,24.593l-9.221,17.812l-3.996,13.973l13.141,5.045l11.102,6.292l12.879,3.286
	l-7.5,13.794l10.936,2.006l-1.076,13.659l-11.434-3.093l-12.135,5.456l-13.602-1.14l6.678-8.679l10.43-6.608l-8.58-7.565
	l-8.445-7.577l-11.037-2.074l-5.189-15.685l-12.467,8.074l-15.664-1.505l15.584-21.4l-16.73,2.053l-18.842-12.195l-22.924-11.21
	l-26.908-29.14l-26.922,20.201l26.998,20.142l20.447,16.192l18.18,6.315l15.676,3.962l-26.611,9.655l-9.117,10.208l-9.34-15.214
	l-14.797-3.656l-13.439,13.755l-27.842,8.194l-10.678,10.594l10.422,7.023l11.525-3.139l9.068-8.136l8.162,14.979l6.158-11.315
	l6.205-12.743l11.832,1.448l6.238,12.546l-11.305,1.972l7.381,12.508l7.514,10.611l3.811,15.232l6.291-8.834l11.512,4.215
	l10.68,6.215l-8.701,6.696l3.045,10.441l-1.615,10.795l-7.477,4.988l-9.125-1.009l-1.971-10.582l9.639-3.382l-1.953-15.592
	l-6.828,7.904l-10.242-1.339l0.398,12.385l-6.463,9.727l8.34,0.95l-1.539,9.729l7.781,1.707l7.176,1.389l7.104,2.613l7.908-4.75
	l4.752-8.16l6.508,8.648l-1.898,9.458l-9.422,1.55l-2.859,8.422l-5.252,8.078l2.029,9.379l-7.674-0.74l-5.033-9.15l7.006-10.534
	l-7.74-2.334l-8.928,9.595l1.76-12.601l-7.543-3.085l-4.242-6.58l-4.172-6.579l-3.16-9.134l7.57-9.93l-4.088-8.355l2.355-9.337
	l7.543-5.854l-5.342-8.571l-7.213-6.563l-4.273-9.993l-6.672,11.388l-15.291-7.262l5.873,11.071l-7.242,7.411l-10.346,8.192
	l-9.891,6.291l-12.697,1.146l-3.398,10.767l9.906,0.083l9.822,1.864l9.039-6.171l9.514-2.063l0.43-10.813l9.574,5.558l1.436-12.676
	l11.85-3.374l-3.436,9.638l-0.936,10.135l4.133,9.244l-8.016,0.783l-7.213-1.629l-5.326,5.379l-4.568,4.169l-2.109,7.711
	l-5.047,5.069l-0.818-14.75l-6.418,7.508l-9.639-3.79l2.973,12l6.811,4.791l9.629,2.936l-5.338,6.317l-7.365,1.52l-6.854,5.699
	l5.234,7.521l9.967-4.366l6.963-7.283l3.818,8l8.172-3.294l-4.92-9.535l-2.148-8.751l4.219-8.635l7.631-6.049l6.676,5.896
	l-7.566,7.465l-1.168,10.339l7.395-0.743l4.723-7.875l3.854,9.531l-9.172,9.344l4.844,10.459l5.986-8.781l6.836-6.719l-2.201,16.512
	l-2.598,10.875l2.332,10.13l3.119,9.762l11.867-0.315l-5.045-7.668l-1.297-10.532l0.531-11.865l7.098,4.578l6.824,6.144l-5.045,7.25
	l5.49,7.599l5.193-7.261l8.393,2.4l-5.047,8.604l0.283,10.187l-9.049-4.028l-8.41,4.816l-6.439-3.455l0.217,12.133l-4.33,8.988
	l-6.889-8.884l4.852-7.833l-13.006,2.854l6.219-5.878l-1.459-9.796l-6.238-6.986l0.375-9.632l-6.205-6.56l-5.088-7.521l-9.27,1.841
	l-7.465,1.612l0.518,11.547l9.59-3.508l7.354,6.865l-1.77,10.138l-8.221-4.545l-8.738,2.462l-6.547-5.69l-5.533-6.511l5.953-4.655
	l-0.453-8.738l-9.941,5.465l-5.795-8.672l-8.027,2.301l-7.686,1.97l-8.615-2.205l-7.807-8.584l-4.32-6.945l-3.834-8.792
	l-1.635-8.809l-0.408-9.647l-5.174-7.054l3.201-9.346l-5.252-7.594l-5.473,9.757l-2.67,10.485l4.52,10.248l1.137,11.768l5.631,9.177
	l2.225,9.415l4.242,6.997l8.092-0.616l-3.059,9.355l7.178,2.915l1.088,9.777l-8.713-2.468l-9.498-1.216l1.055-9.674l-8.949,0.799
	l-2.582,9.473l3.742,8.947l-2.922,9.665l10.314-0.813l-3.779,8.424l-2.594,8.299l-8.18,1.815l-1.556-9.151l-2.506-12.999
	l-1.434-11.725l0.916-11.925l-9.828-2.693l-3.413,10.294l4.494,9.851l-4.576,8.165l-6.762-6.955l-4.12,9.811l-1.216,10.261
	l-7.898,4.618l-8.697-1.559l-10.601-6.612l-2.773-12.243l-10.071,11.441l14.039,11.925l-1.426,11.066l-4.768,11.012l16.872-13.526
	l11.096-3.243l7.841-1.779l5.268-6.316l-0.022-9.137l10.714-3.21l-2.844,8.191l3.651,6.418l-8.042,5.992l7.157,5.075l5.63-4.601
	l2.717,8.632l-7.786,5.736l-7.851,3.079l0.509-8.892l-8.601-0.461l-3.53,10.33l-7.596-8.188l-4.307,12.921l-8.817-7.028
	l-3.361,16.214l-14.055-6.258l-12.667,1.484l-11.716,7.474l-16.193-5.569l14.842-16.522l16.154-1.798l8.922-12.553l-12.64-5.695
	l-12.863-1.176l-13.793-6.731l-21.393,0.538l15.481,21.074l-23.093,17.812l12.599,25.013l21.744,4.429l14.996-2.778l11.378-7.694
	l11.478-4.267l2.519,13.313L1534,312.462l-9.014-7.096l-13.788,9.996l12.419,9.621l-1.638,15.599l-7.795,13.697l13.04,2.126
	l8.43-7.983l-0.003-13.085l10.271,9.806l8.271,7.002l-5.433,9.518l-9.307-0.896l-8.406,7.362l-12.606,3.232l2.717,15.594
	l-7.519,12.355l18.509-3.682l-0.325-16.489l9.648,5.125l8.045,5.681l18.831,8.933l4.45-10.883l-11.817-0.008l4.365-12.743
	l-10.686,0.946l-10.408-3.137l14.603-9.383l10.35-0.09l8.33-7.048l8.756-2.887l3.505-10.002l-9.246-4.057l-5.996,7.145l-8.929,5.419
	l-7.036-10.104l-9.729-10.189l-9.889-7.775l6.804-9.607l3.59-17.609l9.27-12.03l12.533,3.081l-2.909,8.96l-9.254,3.103
	l-4.906,14.179l8.465-1.99l7.787-4.757l4.898,9.063l-10.454,5.756l-6.394,7.222l9.81,8.456l4.052-8.962l7.786-1.409l7.356,3.096
	l7.47,3.099l5.761,7.572l6.598,8.75l5.914,8.791l4.91,8.608l9.584,3.108l-17.699,3.166l-10.075-0.489l3.626-10.872l-6.505-9.319
	l-6.117,10.52l-1.125,9.983l-10.114-6.055l-5.146,9.167l8.097,4.021l9.074,3.516l-7.922,7.715l-3.468,10.005l-6.961,10.32
	l-9.257,11.895l7.621,11.232l-6.667,13.734l3.874,13.352l12.878,9.149l-0.413-11.856l-3.329-10.659l6.06-9.1l11.738-3.673
	l6.737,9.17l5.34,10.604l-5.918,8.446l-8.84-13.606l-1.385,12.884l3.429,14.316l-4.729,14.476l-8.027-9.284l-9.738,8.938
	l-3.167-14.078l-11.484-5.315l-5.197-15.352l-13.184-11.888l17.373-6.82l-10.559-8.486l5.396-13.109l10.442-7.425l-8.38-8.302
	l-12.629,1.206l-5.253,12.002l-6.662,15.64l-10.224,21.287l-12.581-16.702l8.766-19.33l-30.299,0.354l6.109-23.877l12.286-16.867
	l-6.449-21.854l7.463-20.295l-17.915-14.012l-14.051,21.598l0.52,30.228l-31.4,25.324l8.955,39.417l31.021,15.844l18.541,19.106
	l22.979,4.085l14.716-11.999l6.574,16.312l-11.612,14.819l22.463-2.063l6.517,13.868l16.545-0.181l15.759,2.71l12.732,8.378
	l-3.926-21.357l5.428-10.388l-1.143-10.203l8.463-5.682l3.385,16.391l-4.707,14.95l10.08,4.581l10.395-6.918l-5.748-8.784
	l1.123-10.627l-3.766-7.692l-1.715-9.51l-6.303-6.779l2.521-12.373l-8.215,2.864l-4.557-8.729l-3.307-8.298l-1.961-9.857
	l-8.73,3.778l-7.109,7.501l-9.213-5.412l7.043-8.896l5.927-7.604l3.347-10.79l5.747-10.339l8.272-0.134l8.316-0.521l4.52-8.383
	l4.783,9.662l8.613-6.712L1633.383,393l-6.508,6.849l0.012,15.422l-4.475-7.216l-6.119-10.809l-10.531,1.13l-5.509,9.601
	l11.423,1.721l2.32,10.892l2.654,11.329l6.871-8.063l10.883,0.214l4.023-9.05l-0.063-11.327l10.449-6.773l-7.033-7.324l9.428-4.48
	l-7.389-9.12l-6.947-8.213l-4.768-8.27l8.109-6.596l6.291,10.199l7.373,10.068l8.979-7.214l1.982,9.1l-2.654,9.313l-2.918,10.24
	l-6.057,10.676l-5.379,7.816l4.35,8.16l1.879,8.671l-11.623-0.093l-9.752,6.464l-6.594-3.841l1.813,14.104l10.699-3.703
	l-6.229,11.495l4.246,9.478l5.979-12.467l6.121-12.103l4.824,9.438l-5.699,10.644l5.928,7.456l-1.475,12.185l-10.443-6.01
	l-0.301,13.443l11.652,7.153l-7.98,10.494l-9.617,9.101l7.154,13.87l-19.301-4.581l-9.047,16.511l-19.437-1.174l-10.462-15.651
	l-14.437,2.368l-2.93,18.034l17.158,21.591l-27.125,5.257l-1.942,43.579l29.071,57.407l17.027-62.742l12.213-36.265l19.314-19.805
	l21.498-3.672l-1.754,34.576l-2.803,51.095l57.139,40.706l73.455-20.868l81.982,28.229l23.701-54.469l1.533-47.189l36.775,24.696
	l-1.174-38.232l33.281-6.201l14.928-30.436l11.936-29.724l0.631-34.491l-24.621,8.221l-1.385-29.94l-15.529,8.823l-2.168,15.939
	l-13.734-2.482l-12.904,6.556l-11.43,9.046l-10.811-11.868l-9.109,10.163l-5.307-12.625l-10.936,0.39l-2.162,13.594l-8.949-9.436
	l-11.801,1.266l-4.729,11.148l-9.07-4.822l-6.705,9.939l2.922,12.943l-11.471,0.861l-12.006,10.306l-13.551,5.953l-11.936-9.292
	l-0.258-12.704l13.621,2.686l13.695-1.917l-6.891-8.441l-3.225-9.082l-3.99-8.061l-6.865,13.838l-13.658,1.161l-15.668,1.368
	l7.307,7.966l0.611,11.612l5.137,14.063l8.977,11.397l11.238,15.537l15.533-14.953l15.793-13.141l15.582-6.961l7.061,14.131
	l10.309-9.412l-2.949-15.229l-11.219-7.121l13.01-9.955l9.539,8.385l3.74,14.902l17.389-0.567l-9.379-9.348l3.324-11.265
	l15.818,4.703l4.92,19.871l11.721-11.821l13.701-8.929l19.748-5.234l-0.188,22.255l-6.758,25.331l-21.514-10.347l-10.744,25.661
	l-14.576-20.09l-19.85-7.106l2.795,14.036l4.797,18.429l-21.148-12.477l-21.137-3.295l-13.721,6.888l-7.346,21.531l30.916-1.858
	l14.852,24.047l-24.615,31.165l-33.234-23.186l-24.4-26.247l-21.025-21.686l-27.145,11.485l24.154,36.521l-40.881,15.578
	l-19.186-36.715l-13.301-30.935l25.002-1.747l18.258-16.979l16.748,0.19l15.191-3.771l-5.785-19.197l-14.529,1.924l-10.564-8.356
	l-8.283,8.671l-10.83,13.424l-17.186,3.075l1.795-18.012l-14.387,6.713l-9.932,14.53l-5.684-17.278l10.568-11.779l-4.6-13.146
	l9.656-6.117l-8.238-9.21l-3.305-13.539l10.473,2.05l6.828-8.501l7.816-5.468l10.52-1.675l-5.078-7.426l4.752-9.098l3.957,7.557
	l6.262,6.641l2.563,10.82l-12.295-0.916l2.965,7.45l-4.432,7.811l-8.621-8.427l-8.721,9.572l10.207,3.528l-4.703,9.971
	l-5.297,13.067l11.771-1.716l5.943-12.093l4.746,11.188l-0.635,12.89l10.197-13.148l9.107-5.993l-2.398-11.543l-9.668,5.69
	l-3.357-8.912l4.967-7.83l9.047-1.709l8.141,6.408l5.367,10.714l-1.873,11.967l10.939,2.358l3.65-11.116l10.596-2.453l8.322,0.188
	l8.361-2.8l8.965,0.631l-3.484-9.392l7.559-3.214l8.967-1.1l6.6,6.096l6.49,6.179l-2.393,8.981l8.275,3.784l5.695-10.585
	l-5.957-11.549l-9.416-8.577l9.758-3.982l-6.029-9.908l-9.971,3.612l-6.32,7.053l-8.627-0.378l2.715-9.27l10.26-8.345l-10.008-0.975
	l-3.375-9.1l9.84-1.713l7.59-3.138l1.889-9.103l7.248,6.701l2.039-10.009l-1.232-9.396l2.629-8.123l-5.572-6.986l8.984-1.833
	l14.465-2.033l9.34,1.302l7.408,6.107l9.199-0.627l-3.141,9.079l-3.43,9.109l3.559,12.268l-8.578-2.387l-4.049-8.268l-7.4-3.806
	l8.838-6.716l-8.793-5.296l-10.357-2.764l3.275,10.366l-8.059-1.004l1.453,8.871l7.6,4.81l-7.795,4.972l-4.588,7.927l-10.033,6.858
	l9.113,1.74l4.893,6.296l4.697,7.488l0.975,10.92l-0.166,10.541l10.031,0.426l3.201-9.706l-3.785-9.417l1.807-10.233l-7.381-4.28
	l-4.967-8.266l6.789-4.379l5.639-6.623l1.771,12.191l9.004-3.172l-0.381,9.878l-2.25,9.678l3.797,8.838l1.326,10.185l10.516-6.549
	l11.248-1.857l2.639-10.841l-4.666-10.778l-5.754,8.843l-8.777,1.922l1.928-12.271l3.781-8.485l7.68,0.25l5.432-10.072l-8.822,0.066
	l-6.207-5.141l3.361-8.225l9.295,3.771l10.193,0.741l5.283-9.549l-0.768-12.408l9.711-3.987l-7.527-8.135l-10.129-1.564
	l-5.547,5.464l3.127,8.602l0.633,9.9l-7.537,2.385l-4.045-5.688l0.338-8.023l-2.133-7.815l-9.609,4.97l-7.689-6.373l9.707-3.587
	l0.154-9.075l9.063-3.896l1.988,9.3l7.758-7.729l8.961,4.368l-0.303-8.725l4.189-5.883l6.465-0.197l5.389,4.686l7.869-8.185
	l-7.805-2.202l-2.668-9.352l-5.24,8.698l-1.359-5.012l-5.316,0.287l4.785-7.743l5.381-6.907l-9.844-1.595l-7.621-5.886l-9.084,1.888
	l-2.996-7.901l-0.895-11.104l-9.299-0.679l10.119-11.946l7.438,4.895l1.482,13.325l5.004-9.706l8.215-6.478l-5.777-7.273
	l-7.398,0.198l-5.074-6.154l-12.838,10.995l-8.217-7.292l-4.129,7.827l-7.516-7.44l-2.197,9.36l3.635,10.009l8.707-3.098
	l0.055,11.691l-2.703,10.483l12.34-6.01l1.959,14.761l-6.488-5.094l-7.365,7.622l7.057,5.248l7.943,4.668l7.857-2.333l-2.182-10.33
	l8.268-0.217l4.242,4.495l5.107,1.803l-8.307,7.351l7.248,3.253l-3.725,6.5l-8.146-0.553l-9.096,0.079l-8.949,4.811l-1.33-9.247
	l-8.785-2.635l-10.273-0.551l1.377,9.774l-3.615,8.975l12.166-5.303l3.547,9.344l-9.523,6.502l-12.338-2.89l1.645,9.699l-9.016-2.1
	l-7.834,1.523l-9.016,8.482l-10.857-1.277l5.084-7.409l8.158-1.958l-5.695-7.105l-8.686,1.849l-7.779-2.3l-10.213-0.311
	l-7.047,5.568l-2.412-11.135l-10.248-1.395l1.967,8.49l1.918,8.683l-9.721,1.055l-2.264-9.838l-8.23-4.044l-7.16-6.73l-6.348-7.142
	l12.926,1.735l7.014,6.266l4.145-5.751l4.99-4.298l6.051,4.466l5.422-4.103l6.928,6.064l7.686,4.567l9.553-2.119l10.207,1.898
	l-3.768-8.329l5.023-7.313l5.906,4.779l2.082,8.086l-0.012,8.307l7.789,2.06l5.6-7.404l-5.607-8.025l-3.846-9.814l13.873,7.408
	l2.246-11.557l-8.576-0.126l-7.117-7.075l4.811-7.741l8.334,4.513l8.922,0.622l7.02,4.344l-1.186-12.706l1.102-10.393l-9.955,7.804
	l1.547-8.884l-8.08-2.48l7.996-6.332l-2.234-8.112l-7.906,1.183L1805,288.501l6.123-8.453l10.676-2.3l5.877-7.505l11.117-2.387
	l-7.27-6.277l-6.824-7.714l-9.637-5.837l3.344-16.189l-8.725-4.901l-0.016,11.739l-9.293-5.357l5.447-16.695l-6.432,7.268
	l-8.23,10.175l0.824,8.8l8.393,0.82l6.148,7.357l-9,3.579l8.643,7.982l8.57-4.249l6.594,6.243l-8,5.713l-9.805,4.439l-5.318-8.282
	l-7.84-4.5l-2.363-11.049l-5.461,8.565l-4.732-7.114l-3.84-7.594l-6.035,5.808l-2.297-9.743l-6.363,6.761l-2.967,9.317l5.102,10.875
	l5.586-8.985l7.08,4.475l7.619,7.016l3.838,11.286l5.443-8.648l6.033,7.934l-3.322,8.461l7.934,9.668l9.186-1.491l5.234,15.303
	l-8.359-5.29l-14.541-7.635l-7.855-3.539l-0.488,12.104l10.037,1.313l7.334,5.394l-6.486,6.003l0.109,10.108l-9.836,3.459
	l-6.537,6.182l-5.883,6.541l-9.713-5.651l2.361-9.728l5.016,6.182l6.348-9.018l9.225-7.308l-9.1-3.934l-3.59-9.349l-10.623-5.776
	l10.898-3.558l5.18-9.238l-4.205-9.001l-4.023-8.348l-8.584,6.803l6.74,10.107l-8.143,2.42l-8.514,6.865l0.125-10.916l-9.766-2.502
	l-9.705-1.945l0.043,12.05l-11.619-7.19l1.939,8.349l11.811,11.259l6.861-9.741l4.635,9.383l9.121,3.069l-1.553,8.923l11.025-5.376
	l3.107,9.074l-9.336,2.693l-2.287,8.609l-6.59,3.647l-7.998-2.174l-6.639,6.435l-10.162-1.583l-3.674-6.803l11.004-0.079
	l6.313-7.468l9.357,1.044l-4.398-10.782l-10.07,1.605l-6.057,8.073l-7.232-5.545l4.617-6.532l0.355-9.035l-9.5,0.14l-2.611,8.322
	l-9.506,4.219l7.516,4.552l4.988,5.805l-10.432,1.623l-11.242-7.953l2.975,10.426l15.996,4.741l-6.871,4.855l-7.785,3.552
	l7.434,9.549l8.25,3.878l7.535,7.529l-9.162,2.445l-4.555,7.845l-6.023,8.313l-2.816,9.731l-2.375,12.421l7.154-1.142l9.225,0.172
	l-5.332-8.392l4.281-9.202l7.912-7.687l8.498-7.529l4.984,9.833l-4.873,7.309l-7.047,3.549l-5.207,5.025l5.832,7.695l7.508-5.519
	l6.861,5.961l-6.623,6.308l10.252,4.55l7.719,6.709l-3.113-17.65l4.455-8.897l-10.09-3.047l5.275-10.056l10.352-4.524l-0.689,9.585
	l10.779-2.662l-0.473-9.883l8.752-4.533l2.301,10.996l6.68,10.676l8.164-2.447l8.977-0.97l0.465,9.398l-7.428,2.987l-5.113,5.086
	l-4.85,6.419l-8.484,2.035l3.289-12.012l-5.008-9.813l-10.213,1.462l-4.941,8.402l-5.934,8.402l15.992-7.462l-0.439,9.941
	l-7.574,0.874l-1.711,10.146l9.359,0.046l7.08,5.392l-3.094,8.414l1.986,7.676l-8.996,1.979l-2.033-11.774l-8.957-3.003
	l-7.014,5.174l-6.184-8.62l-6.145-7.61l-6.91,6.795l3.145,9.076l8.514,5.231l6.186,10.224l8.678-7.994l3.748,8.696l16.855,0.203
	l-5.605,4.949l-5.744,3.984l-7.906-0.79l-6.342,3.063l-7.693,1.573l-5.525-6.163l-3.473-9.461l-9.186-4.214l-8.189-6.295
	l4.611-6.736l6.775-14.637l-3.873-6.003l-5.752-2.438l-3.949,7.244l5.66,6.119l-9.572,2.243l0.521-16.706l-5.803,5.901l-9.42-1.938
	l-9.781,5.375l0.967-9.409l4.371-8.744l1.52-9.639l4.703-17.773l5.027-10.461l-5.535-10.485l-7.623,10.167l-3.965,9.999l4.85,9.147
	l-7.82,7.685l-1.938,10.693l-4.592,10.22l1.053,13.327l8.84,5.241l-9.543,5.715l-6.789,8.191l-7.811-6.28l4.656-8.859l1.715-9.696
	l-5.602-7.877l4.813-8.926l4.354-9.037l3.74-9.748l0.479-9.314l0.484-10.954l9.412-9.167l2.318-9.823l5.09-7.075l-4.92-8.926
	l-9.574-2.194l-4.996-9.927l-8.721-3.425l-4.691-13.023l1.871-9.797l7.305,11.557l8.947,2.643l-3.506-13.614l-7.482-9.45
	l-8.986-2.054l-6.787,4.822l-6.699,5.664l6.127,4.915l-1.189,8.49l-4.934,7.978l-6.057-9.227l-5.715,10.582l-10.604,5.021
	l1.348-10.774l-10.951-1.973l-8.895-3.875l-7.237,9.287l7.562,4.016l7.938,1.88l3.277,9.761l7.332,4.921l4.643,7.391l4.561-13.133
	l9.188-4.446l10.701,0.077l4.359-10.193l4.57,13.317l7.904,6.582l9.506,8.531l-1.518,12.003l-8.961,2.308l-9.598,3.66l-4.432-8.02
	l-4.582-7.837l16.623,1.428l-8.678-7.329l-11.02-5.458l-4.49,9.652l-6.143-3.684l-4.518,11.582l-6.605,8.559l-4.775-10.779
	l-6.828-8.154l-6.904-9.546l-9.153-6.323l-9.531-3.958l-0.718-9.22l-5.198-8.461l11.646,2.285l2.145-7.616l-5.382-6.135
	l-8.518,0.164l-10.371-12.968l9.813-4.972l4.13,8.36l7.272-7.409l6.881-8.28l8.05,2.476l7.787,1.741l3.938-8.157l3.973-6.027
	l-13.689,3.047l-2.545-9.659l8.455,0.817l4.758-8.997l2.449-8.21l3.971-7.735l-7.18-11.701l7.029,2.085l6.742,1.667l7.518-1.874
	l6.971-5.122l-5.412-7.001l-1.107-8.645l9.277,4.075l7.645-3.64l4.838,7.109l-6.611,6.613l-2.977,10.623l-7.385,3.787l-4.58,7.84
	l-5.688-5.577l-4.09,8.931l-0.76,8.401l-5.504,5.355l6.15,7.83l0.523,8.662l10.023-1.128l-4.482,8.565l-11.471-0.826l5.289,10.89
	l-7.363,7.048l-3.951-9.763l-9.465,2.58l-7.951-6.246l-4.351,8.605l5.917,8.188l9.123,0.998l7.355,6.072l9.498,0.445l6.563-6.24
	l4.293-8.136l0.6-7.439l8.111-1.476l0.938-9.898l1.66-10.571l-3.463-9.772l-7.174,8.107l-4.57-6.521l3.605-8.217l8.84-5.529
	l7.945,6.877l5.387,8.767l10.52-0.254l7.939-5.123l2.785,14.214l-2.838,11.395l-8.402-8.388l-10.928-0.418l-2.627,10.923
	l9.648,0.211l7.512,7.921l8.293,4.335l10.979,1.928l-9.02,8.501l9.564,5.437l-8.424,6.18l-1.508,12.148l10.76-6.705l9.787-4.861
	l6.904-9.861l-10.133-2.543l5.414-9.113l8.361-2.83l11.055-6.51l-9.527-5.108l-10.795,0.086l-6.322,6.842l-11.799-2.529l4.889-7.817
	l18.584-6.685l-4.949-9.735l-5.57,9.628l-8.285-4.737l3.238-10.082l-8.625,0.835l-0.711-12.811l-10.717-0.002l-7.395-8.602
	l-2.842,11.423l-9.6-7.212l4.014-7.894l2.273-7.792l4.225-6.446l5.432,7.799l5.721,7.657l7.439-0.951l6.891-0.212l13.777-4.497
	l5.463,5.314l-6.752,4.586l-6.008-2.681l-3.129,9.476l6.66,7.798l2.783-6.956l6.586,6.445l6.031,6.538l3.584,9.714l8.17,6.422
	l9.768,6.987l12.389,6.561l-1.395-10.61l-5.678-9.914l-10.373-3.207l6.018-9.195l9.986,1.404l-8.693-11.062l7.65-1.127l7.998,4.214
	l6.252-6.137l7.115-1.865l3.385,6.989l8.646,5.865l0.609-8.888l6.654-8.355l-5.016-7.95l9.545-1.978l6.24-8.358l-8.127-3.302
	l-6.004,3.972l-7.168-1.231l-5.217,4.696l3.146,6.669l1.91,9.174l-7.973-5.118l-8.215-0.182l3.426-7.833l3.092-8.601l-4.039-6.72
	l-8.855-0.183l6.314-7.969l0.6-9.819l6.512-7.349l9.67,6.872l-0.043,9.665l-8.389-3.341l2.721,10.858l9.848,0.608l5.137-9.45
	l5.082-10.51l-7.797-4.143l-7.191-5.895l2.578-10.103l2.805-10.089l7.031-3.849l-15.447-0.196l4.637-8.188l9.428-2.938l-5.943-8.569
	l-8.568,1.356l-6.588,8.03l0.053-14.209l7.244-9.882l-0.951-10.333l-9.652,0.402l-5.066-7.757l-9.447-1.217l-8.543-4.902
	l-5.488-8.637l4.709-11.692l8.754,8.622l8.688,6.69l10.221-4.332l1.695,11.968l12.525,4.043l-3.645-11.037l9.248-4.453l4.262,10.064
	l2.113,10l-8.986,6.273l-2.951,10.921l9,4.845l3.691-9.744l8.465-9.514l3.525,9.336l8.158-6.569l-1.951-10.244l-8.854-3.725
	l-3.945-9.347l-2.602-10.276l-10.832-3.505l-11.471,1.841l-14.07-1.376l-11.336-7.282l9.438-9.296l11.51,3.244l10.859,1.009
	l11.717-0.247l9.699,4.194l10.221-1.597l12.422,8.031l-5.279,10.364l-10.146-6.348l1.098,11.642l10.164,7.725l3.211,11.414
	l-2.615,12.47l7.248-0.322l7.389,3.161l-7.131,7.747l-9.223,4.372l-5.293-10.729l-3.641,9.321l-8.207-6.204l-7.037,7.17l4.377,6.536
	l7.609,1.077l6.594,5.558l7.721-0.817l6.539,5.086l-7.424,6.65l-8.852,0.604l-7.717-5.794l-8.361-3.829l2.176,13.022l8.463,5.47
	l-17.07-3.464l-0.662,9.867l10.121,1.816l4.471,10.449l-5.592,8.388l-4.74,9.373l8.131,0.906l6.879-0.362l6.602,3.526l8.592,1.794
	l3.357,11.303l-9.115-3.07l-9.969-1.737l7.287,11.309l9.082,4.11l10.594-7.82l3.48,6.667l-6.662,5.143l3.133,9.085l-9.029-1.496
	l-5.9,8.122l8.77,2.081l7.951-0.557l-3.232,8.753l6.635,5.062l5.643,6.355l5.508,6.84l6.855-0.608l5.852-8.683l8.342,4.783
	l7.529,1.525l6.346,5.776l7.385,4.291l1.719,8.723l-5.734,7.327l-7.795,3.377l-1.766,8.95l8.371,3.864l6.488-6.293l6.451-8.07
	l10.873,0.526l-5.162,10.716l-7.039,7.773l0.031,9.537l0.969,8.973l11.939,7.008l-2.559-10.375l1.285-10.535l7.109-9.081
	l7.721-6.869l-5.117-10.786l-16.314-8.54l9.785-3.271l7.752-10.444l4.924,13.979l4.189-9.476l6.346-7.489l13.25-9.497l11.986-2.197
	l-0.281,14.68l-1.158,14.318l18.408-20.194l-9.758-21.575l-13.297-12.681l-8.461,12.349l-8.25,12.024l-10.52,1.245l-10.453,1.476
	l-7.604,8.696l-8.432,5.919l-9.178-5.416l-8.346-4.554l-7.447-4.709l-7.938-2.188l-4.406-9.314l-5.162-9.668l8.93,1.083l0.074-9.81
	l7.316-4.959l-9.879-5.827l-6.068,8.559l-7.406,5.098l-7.791,1.651l4.771,8.311l5.396,5.401l4.334,7.331l-6.279,6.708l-5.377-6.928
	l-5.82-4.833l0.039-8.941l-3.342-10.104l8.338-5.105l-2.811-7.228l-3.795-8.053l-5.963-4.198l-4.766-5.525l8.748-4.5l6.045,5.61
	l4.875-8.984l3.176-11.811l-4.98-12.628l-6.074,7.102l2.754,7.816l-6.229,4.354l-6.711-7.804l-2.354,10.727l-9.059,0.367
	l-10.844-2.593l5.293-7.504l7.57-3.417l-11.652-6.318l6.453-8.321l10.352-4.473l-0.92,10.225l9.412,1.098l2.213-7.714l-5.225-12.926
	l5.463,4.646l7.85,2.611l7.789,0.982l2.586,10.358l4.502,7.631l3.625,8.462l-5.59,7.417l0.779,9.502l-7.098,3.456l-3.762,7.524
	l5.787,8.097l4.672-8.177l8.387-4.338l0.957-10.899l5.479-7.932l0.336-10.501l7.072-8.298l4.191,14.007l12.303-0.804l-5.742-11.048
	l11.311-2.126l10.693,6.431l-5.664,9.207l1.182,10.947l1.369,11.694l-3.186,9.341l-4.6,10.418l-5.988,7.654l-8.857,0.449
	l3.355-11.055l5.176-8.358l3.145-10.761l-4.314-11.292l-6.879,10.223l-6.236-9.535l-5.592,8.964l-1.52,10.465l9.861,0.555
	l-2.158,12.768l-5.801,9.43l-2.648,11.036l10.67-4.574l-1.93,8.078l7.162,4.993l6.055-9.658l3.59,13.173l8.09-7.277l-0.133-12.745
	l5.082-12.699l8.424,6.443l-1.422,12.379l13.371-4.848l-2.67-16.114l-9.809-7.888l0.051-13.942l11.432-7.767l-10.238-8.282
	l3.787-16.855l11.078,6.819l15.107,2.795l-4.346,16.454l6.014,16.162l-18.625-2.094l7.441,15.536l30.152-1.487l-0.576-22.517
	l-0.826-20.079l-18.76-20.121l0.959-18.915l-5.848-18.056l6.244-20.94l-14.531-12.647l-5.119,21.069l-15.318,4.12l-6.541,11.085
	l1.348,14.737l10.148-5.244l9.771-5.117l1.639,22.477l-13.75-2.243l-5.738,11.378l-7.732-7.349l-5.162-9.103l1.789-10.162
	l-6.189-7.14l-9.133,0.025l-9.508-8.141l-7.271,7.155l-2.301-8.921l-9.619,0.01l2.199,8.564l-9.551-1.584l-10.689,3.577l5.197,5.739
	l8.35,1.439l8.111-0.122l2.486,10.283l8.447,0.188l-2.422-9.479l8.719-3.929l2.545,11.139l9.025-2.848l3.842,14.489l-8.889,0.505
	l-8.984-0.175l-8.346,1.146l-2.469,9.856l-6.307-9.61l-3.219-10.792l-8.848-2.136l-9.059-2.418l-6.254-7.954l-7.828-3.546
	l10.752-8.493l9.219-3.414l5.693-6.326l6.949-3.302l-5.145-8.029l-8.025,2.126l-4.328,6.579l-8.971-7.64l-1.344-12.367l7.877,5.177
	l7.971-2.122l4.52-8.091l6.299,6.402l9.436-1.703l5.104,9.475l-9.51,1.531l3.801,9.294l8.635-0.419l8.418-3.801l-1.09-12.283
	l-4.451-9.951l-1.807-12.066l12.615-2.044l6.174,13.457l-0.332,12.689l0.055,12.102l-5.959,9.765l13.979-1.281l4.963-16.293
	l14.865-0.737l-2.408-15.107l-11.566-5.83l-4.76-16.28l-10.986-14.708l-15.42,8.744l-0.193-18.418l-14.443-9.688l-15.334-5.348
	l21.709-20.672l18.793,16.202l21.559,14.357l-1.898-32.091l32.676-1.629l-3.344,36.19l-16.426,18.509l10.873,15.042l20.168,0.148
	l13.25-42.44l11.271,32.707l-1.086,33.392l-5.146,30.01l26.09,10.298l-20.014,24.108l30.678,16.803l-8.953,36.403l-5.104,29.526
	l8.93,26.419l-1.445,26.036l43.344,1.493l-11.563-43.733l7.957-38.403l27.119-45.586l-26.418-47.865l-32.971-33.157l44.637-42.887
	l-48.762-17.05l-30.254-51.99l55.457-17.563l53.859-71.574l31.477,78.851l97.23-27.689L2152.09,65.153l62.334,80.514l-84,100.498
	l79.93,72.819l-13.957,156.704l15.131,161.564l-98.734-6.558l-81.537,18.477l-80.049,14.376l26.041-65.869l45.336-42.225
	l38.473-47.709l-43.221-46.755l50.057-33.49l16.895-74.256l-63.383-20.405l2.166,46.052l-18.004,38.999l-27.195,17.724l-9.637-23.23
	l-18.711,10.184l-12.615,13.8l-12.1,10.775l-2.543-15.832l-4.217-13.567l14.479,0.765l2.547-15.603l16.119,0.003l11.771-16.363
	l-1.006-18.933l22.783,26.013l2.119-26.875l1.576-26.086l3.125-27.497l-13.342-23.042l-6.055,26.177l-10.969-11.214l-9.445-12.536
	l-1.135-18.583l-8.408,9.899l-5.355,12.141l9.771,10.907l-10.705,6.569l15.264,11.578l13.734,7.917l-1.58,16.438l-17.525,2.918
	l-7.152-12.401l-1.434-13.171l-12.158-3.613l-0.838,12.131l-1.33,11.842l7.326,7.232l-14.77,2.459l-5.918-7.25l-6.199,7.115
	l-15.242-0.311l5.773,5.981l6.381,5.827l9.582,0.747l-6.104,11.049l6.275,9.974l11.1-12.502l-1.305-11.365l12.584,0.919
	l12.783,3.171l0.088,16.894l-12.039-3.305l-10.172,7.318l-4.445,12.104l-11.578,6.623l-9.813-5.245l-1.143-12.335l-8.055,17.801
	l-7.93,6.195l-6.061,7.116l3.623,9.164l8.541-6.379l10.57-5.563l10.594,7.424l4.609,13.339l1.492,14.891l-13.324,4.021l1.643-15.424
	l-7.576-10.011l-12.182,7.192l9.049,6.806l-8.912,7.38"/>
</svg>
