<?xml version="1.0" encoding="utf-8"?>
<!-- Generator: Adobe Illustrator 15.1.0, SVG Export Plug-In . SVG Version: 6.00 Build 0)  -->
<!DOCTYPE svg PUBLIC "-//W3C//DTD SVG 1.1//EN" "http://www.w3.org/Graphics/SVG/1.1/DTD/svg11.dtd">
<svg version="1.1"
	 id="svg2985" inkscape:version="0.48.1 r9760" xmlns:dc="http://purl.org/dc/elements/1.1/" xmlns:cc="http://creativecommons.org/ns#" xmlns:rdf="http://www.w3.org/1999/02/22-rdf-syntax-ns#" xmlns:inkscape="http://www.inkscape.org/namespaces/inkscape" xmlns:svg="http://www.w3.org/2000/svg" xmlns:sodipodi="http://sodipodi.sourceforge.net/DTD/sodipodi-0.dtd"
	 xmlns="http://www.w3.org/2000/svg" xmlns:xlink="http://www.w3.org/1999/xlink" x="0px" y="0px" width="3200px" height="800px"
	 viewBox="0 0 3200 800" enable-background="new 0 0 3200 800" xml:space="preserve">
<sodipodi:namedview  id="base" inkscape:current-layer="layer1" inkscape:document-units="px" inkscape:pageshadow="2" inkscape:pageopacity="0.0" inkscape:cy="400" inkscape:cx="1600" inkscape:zoom="0.35" borderopacity="1.0" bordercolor="#666666" showgrid="false" pagecolor="#ffffff">
	</sodipodi:namedview>
<circle cx="1423.778" cy="350.827" r="3.538"/>
<circle cx="1414.469" cy="348.088" r="3.291"/>
<circle cx="1426.673" cy="340.154" r="3.606"/>
<circle cx="1416.678" cy="339.388" r="3.359"/>
<circle cx="1412.327" cy="332.249" r="3.208"/>
<circle cx="1401.807" cy="330.227" r="2.824"/>
<circle cx="1390.302" cy="336.789" r="2.412"/>
<circle cx="1379.545" cy="342.932" r="2.055"/>
<circle cx="1367.471" cy="341.598" r="1.726"/>
<circle cx="1351.163" cy="337.823" r="1.383"/>
<circle cx="1333.949" cy="329.518" r="1.177"/>
<circle cx="1302.604" cy="332.755" r="0.999"/>
<circle cx="1305.313" cy="365.578" r="1.012"/>
<circle cx="1275.921" cy="395.384" r="0.93"/>
<circle cx="1309.854" cy="427.157" r="1.026"/>
<circle cx="1282.301" cy="462.998" r="0.958"/>
<circle cx="1213.063" cy="526.679" r="0.889"/>
<circle cx="1284.374" cy="576.147" r="0.943"/>
<circle cx="1331.663" cy="592.195" r="1.067"/>
<circle cx="1364.702" cy="594.568" r="1.273"/>
<circle cx="1379.453" cy="607.716" r="1.328"/>
<circle cx="1402.445" cy="607.284" r="1.561"/>
<circle cx="1416.516" cy="613.761" r="1.63"/>
<circle cx="1408.547" cy="631.139" r="1.328"/>
<circle cx="1389.58" cy="646.686" r="1.122"/>
<circle cx="1387.822" cy="624.671" r="1.259"/>
<circle cx="1356.002" cy="632.902" r="1.067"/>
<circle cx="1382.915" cy="675.582" r="0.999"/>
<circle cx="1335.008" cy="682.581" r="0.93"/>
<circle cx="1361.27" cy="740.021" r="0.902"/>
<circle cx="1268.797" cy="734.743" r="0.902"/>
<circle cx="1306.77" cy="637.599" r="0.944"/>
<circle cx="1233.82" cy="645.25" r="0.889"/>
<circle cx="1141.925" cy="737.259" r="0.889"/>
<circle cx="1125.957" cy="610.554" r="0.889"/>
<circle cx="1116.701" cy="456.978" r="0.889"/>
<circle cx="1184.108" cy="396.936" r="0.889"/>
<circle cx="1130.249" cy="260.817" r="0.889"/>
<circle cx="1149.282" cy="91.107" r="0.889"/>
<circle cx="1285.594" cy="141.275" r="0.916"/>
<circle cx="1299.369" cy="66.096" r="0.902"/>
<circle cx="1395.589" cy="62.461" r="0.916"/>
<circle cx="1480.119" cy="71.117" r="0.93"/>
<circle cx="1483.874" cy="123.708" r="1.081"/>
<circle cx="1452.107" cy="138.172" r="1.163"/>
<circle cx="1442.805" cy="101.186" r="0.971"/>
<circle cx="1410.279" cy="128.639" r="1.04"/>
<circle cx="1367.612" cy="136.174" r="1.012"/>
<circle cx="1391.058" cy="172.719" r="1.246"/>
<circle cx="1348.953" cy="182.045" r="1.081"/>
<circle cx="1366.651" cy="214.468" r="1.328"/>
<circle cx="1335.319" cy="230.964" r="1.108"/>
<circle cx="1302.238" cy="202.614" r="0.958"/>
<circle cx="1248.452" cy="232.995" r="0.889"/>
<circle cx="1248.02" cy="319.932" r="0.889"/>
<circle cx="1302.291" cy="270.301" r="0.999"/>
<circle cx="1315.899" cy="303.875" r="1.053"/>
<circle cx="1344.381" cy="290.126" r="1.287"/>
<circle cx="1337.129" cy="266.12" r="1.19"/>
<circle cx="1356.778" cy="254.06" r="1.396"/>
<circle cx="1362.363" cy="275.053" r="1.548"/>
<circle cx="1371.113" cy="288.285" r="1.74"/>
<circle cx="1376.352" cy="263.849" r="1.767"/>
<circle cx="1369.19" cy="241.766" r="1.534"/>
<circle cx="1383.729" cy="231.12" r="1.712"/>
<circle cx="1394.906" cy="215.201" r="1.726"/>
<circle cx="1390.905" cy="197.869" r="1.479"/>
<circle cx="1416.16" cy="192.102" r="1.712"/>
<circle cx="1423.756" cy="169.781" r="1.424"/>
<circle cx="1444.339" cy="161.262" r="1.396"/>
<circle cx="1452.137" cy="185.896" r="1.932"/>
<circle cx="1439" cy="198.638" r="2.097"/>
<circle cx="1426.025" cy="209.423" r="2.22"/>
<circle cx="1412.523" cy="216.954" r="2.069"/>
<circle cx="1402.313" cy="229.833" r="2.11"/>
<circle cx="1396.771" cy="242.306" r="2.138"/>
<circle cx="1386.441" cy="250.83" r="1.946"/>
<circle cx="1392.939" cy="263.485" r="2.234"/>
<circle cx="1403.07" cy="254.714" r="2.44"/>
<circle cx="1408.998" cy="265.09" r="2.797"/>
<circle cx="1419.576" cy="269.431" r="3.194"/>
<circle cx="1428.856" cy="262.034" r="3.332"/>
<circle cx="1438.865" cy="269.283" r="3.593"/>
<circle cx="1430.675" cy="276.76" r="3.51"/>
<circle cx="1444.102" cy="280.766" r="3.785"/>
<circle cx="1445.816" cy="291.99" r="3.881"/>
<circle cx="1434.296" cy="288.808" r="3.661"/>
<circle cx="1423.137" cy="287.837" r="3.387"/>
<circle cx="1418.139" cy="280.411" r="3.222"/>
<circle cx="1408.09" cy="279.154" r="2.879"/>
<circle cx="1398.961" cy="274.537" r="2.495"/>
<circle cx="1385.551" cy="276.922" r="2.083"/>
<circle cx="1385.914" cy="291.066" r="2.151"/>
<circle cx="1397.846" cy="289.325" r="2.55"/>
<circle cx="1409" cy="290.969" r="3.016"/>
<circle cx="1416.547" cy="296.654" r="3.235"/>
<circle cx="1426.745" cy="297.909" r="3.524"/>
<circle cx="1437.961" cy="300.987" r="3.771"/>
<circle cx="1430.486" cy="308.6" r="3.661"/>
<circle cx="1423.281" cy="317.28" r="3.483"/>
<circle cx="1419.813" cy="307.049" r="3.4"/>
<circle cx="1409.761" cy="303.792" r="3.071"/>
<circle cx="1400.191" cy="302.14" r="2.714"/>
<circle cx="1389.172" cy="306.196" r="2.33"/>
<circle cx="1376.445" cy="304.266" r="1.904"/>
<circle cx="1360.958" cy="303.366" r="1.562"/>
<circle cx="1345.813" cy="313.053" r="1.314"/>
<circle cx="1362.236" cy="325.417" r="1.603"/>
<circle cx="1372.743" cy="319.034" r="1.85"/>
<circle cx="1383.195" cy="323.038" r="2.124"/>
<circle cx="1393.823" cy="322.262" r="2.508"/>
<circle cx="1400.667" cy="314.942" r="2.811"/>
<circle cx="1411.246" cy="313.323" r="3.14"/>
<circle cx="1411.977" cy="322.497" r="3.181"/>
<circle cx="1423.512" cy="328.135" r="3.538"/>
<circle cx="1433.598" cy="330.268" r="3.744"/>
<circle cx="1435.127" cy="319.462" r="3.757"/>
<circle cx="1443.089" cy="311.078" r="3.895"/>
<circle cx="1449.847" cy="303.145" r="3.963"/>
<circle cx="1457.775" cy="310.68" r="4.073"/>
<circle cx="1468.736" cy="312.689" r="4.183"/>
<circle cx="1465.98" cy="302.467" r="4.142"/>
<circle cx="1457.744" cy="296.886" r="4.032"/>
<circle cx="1457.852" cy="287.572" r="3.991"/>
<circle cx="1456.264" cy="278.8" r="3.936"/>
<circle cx="1450.438" cy="271.105" r="3.813"/>
<circle cx="1454.884" cy="263.607" r="3.785"/>
<circle cx="1457.908" cy="256.992" r="3.744"/>
<circle cx="1461.847" cy="251.355" r="3.716"/>
<circle cx="1449.529" cy="251.1" r="3.565"/>
<circle cx="1444.187" cy="260.456" r="3.606"/>
<circle cx="1437.219" cy="252.301" r="3.387"/>
<circle cx="1442.546" cy="241.927" r="3.318"/>
<circle cx="1454.514" cy="241.98" r="3.511"/>
<circle cx="1451.939" cy="231.73" r="3.236"/>
<circle cx="1440.023" cy="230.25" r="3.017"/>
<circle cx="1430.334" cy="238.655" r="2.989"/>
<circle cx="1426.272" cy="248.741" r="3.085"/>
<circle cx="1417.198" cy="254.617" r="2.906"/>
<circle cx="1410.251" cy="243.631" r="2.522"/>
<circle cx="1417.781" cy="234.45" r="2.549"/>
<circle cx="1428.474" cy="224.464" r="2.618"/>
<circle cx="1444.393" cy="217.089" r="2.714"/>
<circle cx="1457.559" cy="206.01" r="2.563"/>
<circle cx="1459.758" cy="221.923" r="3.112"/>
<circle cx="1465.435" cy="234.013" r="3.455"/>
<circle cx="1462.452" cy="243.449" r="3.62"/>
<circle cx="1469.777" cy="244.32" r="3.703"/>
<circle cx="1477.537" cy="243.137" r="3.743"/>
<circle cx="1487.72" cy="243.422" r="3.813"/>
<circle cx="1483.048" cy="252.343" r="3.908"/>
<circle cx="1493.339" cy="255.527" r="4.004"/>
<circle cx="1485.671" cy="264.929" r="4.059"/>
<circle cx="1495.505" cy="267.568" r="4.128"/>
<circle cx="1500.939" cy="278.504" r="4.224"/>
<circle cx="1489.963" cy="277.857" r="4.169"/>
<circle cx="1491.479" cy="289.819" r="4.251"/>
<circle cx="1501.701" cy="289.973" r="4.279"/>
<circle cx="1497.75" cy="300.426" r="4.32"/>
<circle cx="1505.857" cy="304.548" r="4.348"/>
<circle cx="1515.319" cy="301.801" r="4.347"/>
<circle cx="1512.043" cy="292.68" r="4.32"/>
<circle cx="1523.598" cy="293.467" r="4.333"/>
<circle cx="1520.286" cy="283.211" r="4.293"/>
<circle cx="1510.522" cy="282.419" r="4.265"/>
<circle cx="1515.455" cy="273.113" r="4.224"/>
<circle cx="1505.918" cy="269.307" r="4.169"/>
<circle cx="1503.658" cy="259.294" r="4.073"/>
<circle cx="1506.691" cy="250.394" r="3.977"/>
<circle cx="1498.277" cy="245.365" r="3.908"/>
<circle cx="1495.199" cy="236.355" r="3.716"/>
<circle cx="1509.291" cy="240.402" r="3.84"/>
<circle cx="1520.85" cy="242.96" r="3.895"/>
<circle cx="1530.407" cy="235.635" r="3.771"/>
<circle cx="1543.08" cy="233.132" r="3.716"/>
<circle cx="1537.818" cy="223.952" r="3.51"/>
<circle cx="1523.331" cy="221.689" r="3.469"/>
<circle cx="1517.438" cy="231.452" r="3.675"/>
<circle cx="1509.86" cy="221" r="3.414"/>
<circle cx="1504.707" cy="231.465" r="3.647"/>
<circle cx="1496.281" cy="226.065" r="3.497"/>
<circle cx="1495.796" cy="216.885" r="3.25"/>
<circle cx="1502.359" cy="210.285" r="3.058"/>
<circle cx="1511.336" cy="208.115" r="3.043"/>
<circle cx="1512.015" cy="194.719" r="2.536"/>
<circle cx="1509.341" cy="180.517" r="2.028"/>
<circle cx="1490.813" cy="174.685" r="1.849"/>
<circle cx="1492.007" cy="190.298" r="2.275"/>
<circle cx="1494.186" cy="201.748" r="2.742"/>
<circle cx="1485.05" cy="210.024" r="2.975"/>
<circle cx="1484.56" cy="221.342" r="3.346"/>
<circle cx="1486.551" cy="231.379" r="3.579"/>
<circle cx="1477.906" cy="234.341" r="3.565"/>
<circle cx="1473.119" cy="225.496" r="3.346"/>
<circle cx="1471.909" cy="214.393" r="3.016"/>
<circle cx="1473.977" cy="201.178" r="2.536"/>
<circle cx="1473.241" cy="187.265" r="2.11"/>
<circle cx="1467.709" cy="169.637" r="1.658"/>
<circle cx="1479.456" cy="153.262" r="1.383"/>
<circle cx="1500.71" cy="155.831" r="1.452"/>
<circle cx="1517.782" cy="165.208" r="1.63"/>
<circle cx="1528.751" cy="181.062" r="2.055"/>
<circle cx="1545.699" cy="186.67" r="2.275"/>
<circle cx="1560.682" cy="167.07" r="1.699"/>
<circle cx="1544.168" cy="166.048" r="1.657"/>
<circle cx="1532.17" cy="151.877" r="1.383"/>
<circle cx="1514.76" cy="134.421" r="1.177"/>
<circle cx="1527.461" cy="103.257" r="0.999"/>
<circle cx="1542.646" cy="57.41" r="0.902"/>
<circle cx="1599.701" cy="85.834" r="0.957"/>
<circle cx="1624.696" cy="47.332" r="0.889"/>
<circle cx="1632.255" cy="113.142" r="1.04"/>
<circle cx="1653.246" cy="137.664" r="1.218"/>
<circle cx="1680.471" cy="153.646" r="1.438"/>
<circle cx="1680.542" cy="128.647" r="1.136"/>
<circle cx="1681.66" cy="95.227" r="0.971"/>
<circle cx="1691.817" cy="52.343" r="0.889"/>
<circle cx="1753.955" cy="65.19" r="0.916"/>
<circle cx="1832.59" cy="58.243" r="0.902"/>
<circle cx="1785.332" cy="109.803" r="0.985"/>
<circle cx="1740.639" cy="114.474" r="1.026"/>
<circle cx="1712.367" cy="127.42" r="1.122"/>
<circle cx="1704.326" cy="149.518" r="1.355"/>
<circle cx="1695.106" cy="165.522" r="1.644"/>
<circle cx="1691.109" cy="178.076" r="1.945"/>
<circle cx="1704.251" cy="182.609" r="2.042"/>
<circle cx="1715.352" cy="188.264" r="2.206"/>
<circle cx="1728.231" cy="191.216" r="2.22"/>
<circle cx="1720.73" cy="203.611" r="2.701"/>
<circle cx="1731.666" cy="205.413" r="2.701"/>
<circle cx="1730.59" cy="217.686" r="3.112"/>
<circle cx="1719.157" cy="214.906" r="3.126"/>
<circle cx="1707.021" cy="219.809" r="3.305"/>
<circle cx="1693.421" cy="218.784" r="3.359"/>
<circle cx="1700.099" cy="210.987" r="3.099"/>
<circle cx="1710.527" cy="205.049" r="2.824"/>
<circle cx="1701.948" cy="198.251" r="2.591"/>
<circle cx="1693.502" cy="191.444" r="2.371"/>
<circle cx="1682.465" cy="189.58" r="2.357"/>
<circle cx="1677.275" cy="175.488" r="1.891"/>
<circle cx="1664.809" cy="182.742" r="2.138"/>
<circle cx="1649.146" cy="181.39" r="2.096"/>
<circle cx="1664.729" cy="162.161" r="1.575"/>
<circle cx="1647.998" cy="164.006" r="1.63"/>
<circle cx="1629.157" cy="153.048" r="1.41"/>
<circle cx="1606.233" cy="142.976" r="1.287"/>
<circle cx="1579.324" cy="116.794" r="1.067"/>
<circle cx="1552.402" cy="134.944" r="1.191"/>
<circle cx="1579.4" cy="153.043" r="1.411"/>
<circle cx="1599.848" cy="167.591" r="1.699"/>
<circle cx="1618.027" cy="173.266" r="1.836"/>
<circle cx="1633.703" cy="176.826" r="1.946"/>
<circle cx="1607.092" cy="185.502" r="2.234"/>
<circle cx="1597.976" cy="194.673" r="2.549"/>
<circle cx="1588.636" cy="181.003" r="2.056"/>
<circle cx="1573.838" cy="177.719" r="1.987"/>
<circle cx="1560.399" cy="190.077" r="2.371"/>
<circle cx="1532.557" cy="197.439" r="2.673"/>
<circle cx="1521.879" cy="206.958" r="3.016"/>
<circle cx="1532.301" cy="213.269" r="3.194"/>
<circle cx="1543.826" cy="210.448" r="3.112"/>
<circle cx="1552.896" cy="203.138" r="2.879"/>
<circle cx="1561.057" cy="216.597" r="3.318"/>
<circle cx="1567.215" cy="206.429" r="2.975"/>
<circle cx="1573.42" cy="194.979" r="2.549"/>
<circle cx="1585.252" cy="196.281" r="2.618"/>
<circle cx="1591.491" cy="207.554" r="3.03"/>
<circle cx="1580.186" cy="209.325" r="3.071"/>
<circle cx="1587.566" cy="220.564" r="3.428"/>
<circle cx="1595.08" cy="230.098" r="3.661"/>
<circle cx="1598.892" cy="243.784" r="3.922"/>
<circle cx="1605.183" cy="235.847" r="3.771"/>
<circle cx="1616.693" cy="239.634" r="3.854"/>
<circle cx="1627.373" cy="245.218" r="3.936"/>
<circle cx="1618.672" cy="251.235" r="4.032"/>
<circle cx="1621.717" cy="260.616" r="4.128"/>
<circle cx="1620.102" cy="270.316" r="4.21"/>
<circle cx="1612.625" cy="274.798" r="4.251"/>
<circle cx="1603.5" cy="273.891" r="4.238"/>
<circle cx="1601.529" cy="264.383" r="4.169"/>
<circle cx="1611.168" cy="261.344" r="4.142"/>
<circle cx="1609.216" cy="247.334" r="3.977"/>
<circle cx="1602.387" cy="254.436" r="4.059"/>
<circle cx="1592.145" cy="253.233" r="4.046"/>
<circle cx="1592.544" cy="264.361" r="4.169"/>
<circle cx="1586.08" cy="273.099" r="4.224"/>
<circle cx="1594.421" cy="273.954" r="4.238"/>
<circle cx="1592.882" cy="282.694" r="4.306"/>
<circle cx="1600.662" cy="284.228" r="4.306"/>
<circle cx="1607.839" cy="285.476" r="4.32"/>
<circle cx="1614.941" cy="287.823" r="4.32"/>
<circle cx="1622.85" cy="283.555" r="4.306"/>
<circle cx="1627.602" cy="276.224" r="4.265"/>
<circle cx="1634.109" cy="283.994" r="4.307"/>
<circle cx="1632.211" cy="292.492" r="4.334"/>
<circle cx="1622.79" cy="293.885" r="4.348"/>
<circle cx="1619.93" cy="301.453" r="4.375"/>
<circle cx="1614.678" cy="308.71" r="4.375"/>
<circle cx="1616.707" cy="317.138" r="4.375"/>
<circle cx="1609.034" cy="316.473" r="4.375"/>
<circle cx="1604" cy="308.251" r="4.375"/>
<circle cx="1611.006" cy="298.786" r="4.361"/>
<circle cx="1603.266" cy="296.689" r="4.348"/>
<circle cx="1594.338" cy="305.31" r="4.375"/>
<circle cx="1596.099" cy="293.987" r="4.347"/>
<circle cx="1588.555" cy="291.215" r="4.334"/>
<circle cx="1584.313" cy="285.303" r="4.307"/>
<circle cx="1580.141" cy="279.392" r="4.279"/>
<circle cx="1576.981" cy="271.185" r="4.224"/>
<circle cx="1584.552" cy="262.263" r="4.142"/>
<circle cx="1580.463" cy="254.755" r="4.073"/>
<circle cx="1582.818" cy="246.365" r="3.963"/>
<circle cx="1590.362" cy="241.106" r="3.867"/>
<circle cx="1585.02" cy="233.404" r="3.744"/>
<circle cx="1577.808" cy="227.508" r="3.606"/>
<circle cx="1573.533" cy="218.53" r="3.359"/>
<circle cx="1566.861" cy="228.762" r="3.634"/>
<circle cx="1551.571" cy="222.237" r="3.469"/>
<circle cx="1557.444" cy="232.184" r="3.716"/>
<circle cx="1550.202" cy="238.843" r="3.854"/>
<circle cx="1539.856" cy="246.203" r="3.963"/>
<circle cx="1529.966" cy="251.855" r="4.032"/>
<circle cx="1517.269" cy="252.885" r="4.032"/>
<circle cx="1513.869" cy="262.56" r="4.128"/>
<circle cx="1523.775" cy="262.635" r="4.142"/>
<circle cx="1533.599" cy="264.309" r="4.169"/>
<circle cx="1542.638" cy="258.764" r="4.128"/>
<circle cx="1552.15" cy="256.91" r="4.087"/>
<circle cx="1552.581" cy="247.195" r="3.977"/>
<circle cx="1562.154" cy="252.189" r="4.045"/>
<circle cx="1563.59" cy="240.799" r="3.867"/>
<circle cx="1575.44" cy="237.768" r="3.826"/>
<circle cx="1572.004" cy="246.428" r="3.963"/>
<circle cx="1571.068" cy="255.534" r="4.073"/>
<circle cx="1575.201" cy="263.84" r="4.156"/>
<circle cx="1567.186" cy="264.543" r="4.169"/>
<circle cx="1559.973" cy="263.079" r="4.155"/>
<circle cx="1554.647" cy="267.912" r="4.196"/>
<circle cx="1550.078" cy="271.659" r="4.224"/>
<circle cx="1547.969" cy="278.587" r="4.265"/>
<circle cx="1542.923" cy="283.142" r="4.306"/>
<circle cx="1542.104" cy="269.889" r="4.21"/>
<circle cx="1535.686" cy="276.635" r="4.251"/>
<circle cx="1526.047" cy="273.23" r="4.224"/>
<circle cx="1529.02" cy="284.012" r="4.307"/>
<circle cx="1535.831" cy="288.317" r="4.32"/>
<circle cx="1545.46" cy="290.954" r="4.334"/>
<circle cx="1540.122" cy="296.63" r="4.347"/>
<circle cx="1532.756" cy="297.995" r="4.348"/>
<circle cx="1525.903" cy="303.116" r="4.361"/>
<circle cx="1531.138" cy="309.874" r="4.375"/>
<circle cx="1541.104" cy="305.951" r="4.375"/>
<circle cx="1548.067" cy="299.408" r="4.361"/>
<circle cx="1551.885" cy="306.596" r="4.375"/>
<circle cx="1560.057" cy="303.636" r="4.375"/>
<circle cx="1555.137" cy="295.068" r="4.347"/>
<circle cx="1552.989" cy="287.206" r="4.32"/>
<circle cx="1557.207" cy="279.447" r="4.279"/>
<circle cx="1564.838" cy="274.01" r="4.238"/>
<circle cx="1571.514" cy="279.309" r="4.279"/>
<circle cx="1563.947" cy="286.016" r="4.32"/>
<circle cx="1562.78" cy="295.305" r="4.347"/>
<circle cx="1570.174" cy="294.637" r="4.347"/>
<circle cx="1574.896" cy="287.562" r="4.32"/>
<circle cx="1578.75" cy="296.125" r="4.347"/>
<circle cx="1569.578" cy="304.521" r="4.375"/>
<circle cx="1574.422" cy="313.918" r="4.375"/>
<circle cx="1580.409" cy="306.029" r="4.375"/>
<circle cx="1587.245" cy="299.991" r="4.361"/>
<circle cx="1585.044" cy="314.827" r="4.375"/>
<circle cx="1582.445" cy="324.599" r="4.375"/>
<circle cx="1584.778" cy="333.7" r="4.375"/>
<circle cx="1587.897" cy="342.472" r="4.375"/>
<circle cx="1599.764" cy="342.189" r="4.375"/>
<circle cx="1594.719" cy="335.299" r="4.375"/>
<circle cx="1593.422" cy="325.836" r="4.375"/>
<circle cx="1593.954" cy="315.175" r="4.375"/>
<circle cx="1601.051" cy="319.288" r="4.375"/>
<circle cx="1607.876" cy="324.809" r="4.375"/>
<circle cx="1602.83" cy="331.323" r="4.375"/>
<circle cx="1608.32" cy="338.152" r="4.375"/>
<circle cx="1613.515" cy="331.627" r="4.375"/>
<circle cx="1621.907" cy="333.783" r="4.375"/>
<circle cx="1616.859" cy="341.515" r="4.375"/>
<circle cx="1617.143" cy="350.668" r="4.375"/>
<circle cx="1608.094" cy="347.049" r="4.375"/>
<circle cx="1599.684" cy="351.376" r="4.375"/>
<circle cx="1593.244" cy="348.272" r="4.375"/>
<circle cx="1593.462" cy="359.173" r="4.375"/>
<circle cx="1589.131" cy="367.249" r="4.375"/>
<circle cx="1582.242" cy="359.267" r="4.375"/>
<circle cx="1587.095" cy="352.229" r="4.375"/>
<circle cx="1574.089" cy="354.793" r="4.375"/>
<circle cx="1580.308" cy="349.512" r="4.375"/>
<circle cx="1578.848" cy="340.71" r="4.375"/>
<circle cx="1572.609" cy="334.433" r="4.375"/>
<circle cx="1572.984" cy="325.779" r="4.375"/>
<circle cx="1566.78" cy="319.884" r="4.375"/>
<circle cx="1561.691" cy="313.126" r="4.375"/>
<circle cx="1552.422" cy="314.781" r="4.375"/>
<circle cx="1544.958" cy="316.229" r="4.375"/>
<circle cx="1545.475" cy="326.604" r="4.375"/>
<circle cx="1555.064" cy="323.451" r="4.375"/>
<circle cx="1562.418" cy="329.619" r="4.375"/>
<circle cx="1560.649" cy="338.729" r="4.375"/>
<circle cx="1552.428" cy="334.645" r="4.375"/>
<circle cx="1543.689" cy="336.857" r="4.375"/>
<circle cx="1537.144" cy="331.744" r="4.375"/>
<circle cx="1531.61" cy="325.894" r="4.375"/>
<circle cx="1537.563" cy="321.711" r="4.375"/>
<circle cx="1537.109" cy="313.86" r="4.375"/>
<circle cx="1527.168" cy="318.77" r="4.375"/>
<circle cx="1521.374" cy="310.978" r="4.375"/>
<circle cx="1513.347" cy="313.045" r="4.375"/>
<circle cx="1505.66" cy="314.816" r="4.361"/>
<circle cx="1497.045" cy="312.834" r="4.334"/>
<circle cx="1489.238" cy="305.122" r="4.292"/>
<circle cx="1484.918" cy="298.882" r="4.251"/>
<circle cx="1481.084" cy="290.981" r="4.21"/>
<circle cx="1479.45" cy="283.066" r="4.169"/>
<circle cx="1479.041" cy="274.398" r="4.1"/>
<circle cx="1473.867" cy="268.06" r="4.018"/>
<circle cx="1477.069" cy="259.663" r="3.95"/>
<circle cx="1471.817" cy="252.839" r="3.84"/>
<circle cx="1466.345" cy="261.606" r="3.895"/>
<circle cx="1463.674" cy="271.027" r="3.95"/>
<circle cx="1468.194" cy="280.235" r="4.073"/>
<circle cx="1469.331" cy="290.808" r="4.128"/>
<circle cx="1474.961" cy="299.054" r="4.21"/>
<circle cx="1477.187" cy="307.513" r="4.238"/>
<circle cx="1481.428" cy="313.8" r="4.265"/>
<circle cx="1489.519" cy="313.246" r="4.306"/>
<circle cx="1486.461" cy="321.652" r="4.307"/>
<circle cx="1493.638" cy="324.271" r="4.334"/>
<circle cx="1494.727" cy="333.056" r="4.348"/>
<circle cx="1486.014" cy="330.838" r="4.32"/>
<circle cx="1476.517" cy="329.745" r="4.251"/>
<circle cx="1477.57" cy="321.053" r="4.251"/>
<circle cx="1468.622" cy="321.771" r="4.183"/>
<circle cx="1466.039" cy="330.282" r="4.196"/>
<circle cx="1469.781" cy="338.321" r="4.21"/>
<circle cx="1466.86" cy="347.005" r="4.197"/>
<circle cx="1477.175" cy="346.274" r="4.265"/>
<circle cx="1473.395" cy="353.844" r="4.238"/>
<circle cx="1470.802" cy="361.302" r="4.224"/>
<circle cx="1462.621" cy="362.931" r="4.156"/>
<circle cx="1461.066" cy="354.709" r="4.142"/>
<circle cx="1458.561" cy="343.03" r="4.128"/>
<circle cx="1457.127" cy="332.494" r="4.101"/>
<circle cx="1458.042" cy="321.78" r="4.114"/>
<circle cx="1448.215" cy="319.36" r="3.977"/>
<circle cx="1444.802" cy="328.609" r="3.963"/>
<circle cx="1449.296" cy="337.46" r="4.018"/>
<circle cx="1444.72" cy="344.796" r="3.963"/>
<circle cx="1437.958" cy="338.547" r="3.826"/>
<circle cx="1433.838" cy="347.363" r="3.744"/>
<circle cx="1432.622" cy="356.582" r="3.716"/>
<circle cx="1424.724" cy="360.732" r="3.565"/>
<circle cx="1416.026" cy="359.332" r="3.318"/>
<circle cx="1405.426" cy="353.39" r="2.975"/>
<circle cx="1402.652" cy="342.39" r="2.879"/>
<circle cx="1392.581" cy="352.671" r="2.454"/>
<circle cx="1406.62" cy="363.385" r="3.03"/>
<circle cx="1405.194" cy="373.329" r="2.975"/>
<circle cx="1400.427" cy="383.223" r="2.797"/>
<circle cx="1417.299" cy="371.07" r="3.359"/>
<circle cx="1428.395" cy="368.156" r="3.634"/>
<circle cx="1436.235" cy="366.556" r="3.798"/>
<circle cx="1441.503" cy="360.882" r="3.895"/>
<circle cx="1441.48" cy="352.672" r="3.895"/>
<circle cx="1452.194" cy="349.788" r="4.045"/>
<circle cx="1449.351" cy="357.148" r="4.018"/>
<circle cx="1453.002" cy="362.914" r="4.06"/>
<circle cx="1444.96" cy="368.299" r="3.963"/>
<circle cx="1452.117" cy="372.858" r="4.046"/>
<circle cx="1457.748" cy="368.724" r="4.101"/>
<circle cx="1460.465" cy="376.48" r="4.128"/>
<circle cx="1452.679" cy="381.634" r="4.06"/>
<circle cx="1444.828" cy="384.401" r="3.963"/>
<circle cx="1445.337" cy="376.411" r="3.963"/>
<circle cx="1436.736" cy="375.998" r="3.826"/>
<circle cx="1433.206" cy="385.278" r="3.744"/>
<circle cx="1425.61" cy="377.921" r="3.565"/>
<circle cx="1421.304" cy="389.531" r="3.469"/>
<circle cx="1412.486" cy="383.216" r="3.208"/>
<circle cx="1409.125" cy="397.784" r="3.112"/>
<circle cx="1395.07" cy="392.161" r="2.55"/>
<circle cx="1382.403" cy="393.494" r="2.138"/>
<circle cx="1370.688" cy="400.211" r="1.794"/>
<circle cx="1354.494" cy="395.207" r="1.452"/>
<circle cx="1369.336" cy="380.36" r="1.753"/>
<circle cx="1385.49" cy="378.745" r="2.234"/>
<circle cx="1394.412" cy="367.466" r="2.549"/>
<circle cx="1381.772" cy="362.349" r="2.097"/>
<circle cx="1368.909" cy="361.293" r="1.753"/>
<circle cx="1355.116" cy="355.244" r="1.451"/>
<circle cx="1333.724" cy="355.727" r="1.177"/>
<circle cx="1349.205" cy="374.663" r="1.369"/>
<circle cx="1326.112" cy="390.667" r="1.122"/>
<circle cx="1338.711" cy="413.141" r="1.232"/>
<circle cx="1360.455" cy="417.121" r="1.547"/>
<circle cx="1375.451" cy="414.625" r="1.945"/>
<circle cx="1386.829" cy="407.713" r="2.275"/>
<circle cx="1398.307" cy="403.879" r="2.742"/>
<circle cx="1400.825" cy="415.841" r="2.837"/>
<circle cx="1396.028" cy="427.913" r="2.618"/>
<circle cx="1387.015" cy="421.536" r="2.275"/>
<circle cx="1373.227" cy="430.518" r="1.863"/>
<circle cx="1385.646" cy="439.162" r="2.233"/>
<circle cx="1384.008" cy="453.177" r="2.193"/>
<circle cx="1376.213" cy="465.485" r="1.946"/>
<circle cx="1389.253" cy="467.395" r="2.357"/>
<circle cx="1397.683" cy="460.222" r="2.673"/>
<circle cx="1397.68" cy="448.465" r="2.673"/>
<circle cx="1407.95" cy="457.275" r="3.071"/>
<circle cx="1416.221" cy="463.566" r="3.318"/>
<circle cx="1410.788" cy="472.118" r="3.14"/>
<circle cx="1401.481" cy="471.313" r="2.824"/>
<circle cx="1393.075" cy="477.929" r="2.509"/>
<circle cx="1380.469" cy="480.833" r="2.042"/>
<circle cx="1383.186" cy="494.845" r="2.097"/>
<circle cx="1375.667" cy="505.947" r="1.877"/>
<circle cx="1394.176" cy="502.638" r="2.495"/>
<circle cx="1393.851" cy="487.822" r="2.467"/>
<circle cx="1403.499" cy="492.428" r="2.893"/>
<circle cx="1411.544" cy="497.532" r="3.14"/>
<circle cx="1430.375" cy="505.559" r="3.62"/>
<circle cx="1434.825" cy="495.78" r="3.73"/>
<circle cx="1423.008" cy="495.772" r="3.469"/>
<circle cx="1427.373" cy="484.323" r="3.62"/>
<circle cx="1416.688" cy="485.174" r="3.332"/>
<circle cx="1406.279" cy="482.355" r="3.016"/>
<circle cx="1420.882" cy="473.924" r="3.469"/>
<circle cx="1431.231" cy="473.843" r="3.688"/>
<circle cx="1439.562" cy="467.51" r="3.867"/>
<circle cx="1448.317" cy="464.916" r="4.004"/>
<circle cx="1451.822" cy="455.929" r="4.046"/>
<circle cx="1442.576" cy="452.283" r="3.922"/>
<circle cx="1436.58" cy="458.704" r="3.798"/>
<circle cx="1427.651" cy="463.573" r="3.634"/>
<circle cx="1420.615" cy="454.494" r="3.428"/>
<circle cx="1410.887" cy="445.338" r="3.167"/>
<circle cx="1400.998" cy="438.352" r="2.838"/>
<circle cx="1407.802" cy="429.72" r="3.071"/>
<circle cx="1411.392" cy="413.897" r="3.208"/>
<circle cx="1420.661" cy="403.089" r="3.428"/>
<circle cx="1433.194" cy="405.857" r="3.744"/>
<circle cx="1430.285" cy="413.907" r="3.688"/>
<circle cx="1421.031" cy="416.695" r="3.469"/>
<circle cx="1416.125" cy="429.435" r="3.318"/>
<circle cx="1424.59" cy="427.648" r="3.538"/>
<circle cx="1432.377" cy="423.374" r="3.716"/>
<circle cx="1437.275" cy="431.517" r="3.826"/>
<circle cx="1426.821" cy="436.689" r="3.606"/>
<circle cx="1420.428" cy="443.177" r="3.428"/>
<circle cx="1430.237" cy="450.776" r="3.689"/>
<circle cx="1434.289" cy="442.722" r="3.771"/>
<circle cx="1442.075" cy="441.457" r="3.922"/>
<circle cx="1449.432" cy="444.24" r="4.018"/>
<circle cx="1456.901" cy="447.024" r="4.101"/>
<circle cx="1462.663" cy="453.827" r="4.155"/>
<circle cx="1469.26" cy="461.69" r="4.21"/>
<circle cx="1475.175" cy="469.588" r="4.238"/>
<circle cx="1480.084" cy="477.322" r="4.279"/>
<circle cx="1489.668" cy="480.115" r="4.32"/>
<circle cx="1471.97" cy="482.961" r="4.21"/>
<circle cx="1461.894" cy="482.521" r="4.128"/>
<circle cx="1465.521" cy="472.752" r="4.183"/>
<circle cx="1459.016" cy="464.379" r="4.128"/>
<circle cx="1452.898" cy="473.831" r="4.046"/>
<circle cx="1451.773" cy="482.801" r="4.032"/>
<circle cx="1441.659" cy="477.361" r="3.881"/>
<circle cx="1436.513" cy="485.598" r="3.771"/>
<circle cx="1444.609" cy="489.211" r="3.922"/>
<circle cx="1453.684" cy="492.37" r="4.032"/>
<circle cx="1445.762" cy="499.303" r="3.908"/>
<circle cx="1442.294" cy="508.292" r="3.826"/>
<circle cx="1435.333" cy="517.566" r="3.62"/>
<circle cx="1426.076" cy="528.253" r="3.387"/>
<circle cx="1433.697" cy="538.345" r="3.428"/>
<circle cx="1427.03" cy="550.685" r="3.098"/>
<circle cx="1430.904" cy="562.682" r="2.989"/>
<circle cx="1443.782" cy="570.904" r="3.071"/>
<circle cx="1443.369" cy="560.25" r="3.318"/>
<circle cx="1440.04" cy="550.673" r="3.387"/>
<circle cx="1446.1" cy="542.496" r="3.634"/>
<circle cx="1457.838" cy="539.197" r="3.799"/>
<circle cx="1464.575" cy="547.436" r="3.771"/>
<circle cx="1469.914" cy="556.964" r="3.689"/>
<circle cx="1463.996" cy="564.552" r="3.497"/>
<circle cx="1455.156" cy="552.327" r="3.593"/>
<circle cx="1453.771" cy="563.904" r="3.387"/>
<circle cx="1457.201" cy="576.768" r="3.153"/>
<circle cx="1452.472" cy="589.774" r="2.673"/>
<circle cx="1444.444" cy="581.432" r="2.797"/>
<circle cx="1434.706" cy="589.462" r="2.385"/>
<circle cx="1431.539" cy="576.813" r="2.714"/>
<circle cx="1420.055" cy="572.037" r="2.508"/>
<circle cx="1414.857" cy="558.243" r="2.646"/>
<circle cx="1401.674" cy="547.561" r="2.385"/>
<circle cx="1419.047" cy="541.433" r="3.016"/>
<circle cx="1408.488" cy="533.808" r="2.783"/>
<circle cx="1413.884" cy="522.03" r="3.057"/>
<circle cx="1424.326" cy="515.358" r="3.415"/>
<circle cx="1415.946" cy="507.899" r="3.236"/>
<circle cx="1403.317" cy="508.983" r="2.783"/>
<circle cx="1398.064" cy="519.767" r="2.55"/>
<circle cx="1391.402" cy="533.819" r="2.22"/>
<circle cx="1381.179" cy="552.947" r="1.795"/>
<circle cx="1368.598" cy="537.939" r="1.603"/>
<circle cx="1377.363" cy="520.571" r="1.891"/>
<circle cx="1347.064" cy="520.888" r="1.314"/>
<circle cx="1353.174" cy="499.434" r="1.424"/>
<circle cx="1365.46" cy="484.279" r="1.657"/>
<circle cx="1359.011" cy="464.642" r="1.534"/>
<circle cx="1366.474" cy="446.407" r="1.698"/>
<circle cx="1348.559" cy="433.818" r="1.355"/>
<circle cx="1334.508" cy="453.224" r="1.19"/>
<circle cx="1335.027" cy="480.384" r="1.19"/>
<circle cx="1303.627" cy="503.138" r="0.999"/>
<circle cx="1312.582" cy="538.554" r="1.026"/>
<circle cx="1343.604" cy="552.79" r="1.218"/>
<circle cx="1362.145" cy="569.957" r="1.383"/>
<circle cx="1385.124" cy="573.628" r="1.698"/>
<circle cx="1399.84" cy="562.847" r="2.138"/>
<circle cx="1406.414" cy="577.503" r="2.083"/>
<circle cx="1394.802" cy="590.819" r="1.671"/>
<circle cx="1417.265" cy="588.964" r="2.097"/>
<circle cx="1423.781" cy="601.426" r="1.946"/>
<circle cx="1440.326" cy="601.263" r="2.165"/>
<circle cx="1456.085" cy="603.698" r="2.303"/>
<circle cx="1468.816" cy="611.225" r="2.165"/>
<circle cx="1464.892" cy="592.035" r="2.769"/>
<circle cx="1470.318" cy="582.701" r="3.112"/>
<circle cx="1469.176" cy="573.534" r="3.359"/>
<circle cx="1477.64" cy="568.428" r="3.538"/>
<circle cx="1481.024" cy="583.156" r="3.194"/>
<circle cx="1476.316" cy="596.589" r="2.714"/>
<circle cx="1486.397" cy="600.705" r="2.632"/>
<circle cx="1496.791" cy="594.489" r="2.948"/>
<circle cx="1491.043" cy="586.597" r="3.181"/>
<circle cx="1492.166" cy="577.048" r="3.441"/>
<circle cx="1488.4" cy="570.137" r="3.579"/>
<circle cx="1486.686" cy="561.593" r="3.73"/>
<circle cx="1480.383" cy="555.5" r="3.813"/>
<circle cx="1482.904" cy="544.383" r="3.949"/>
<circle cx="1474.689" cy="546.956" r="3.881"/>
<circle cx="1470.133" cy="539.113" r="3.936"/>
<circle cx="1466.827" cy="531.657" r="3.977"/>
<circle cx="1464.866" cy="522.8" r="4.018"/>
<circle cx="1456.136" cy="526.196" r="3.908"/>
<circle cx="1449.026" cy="532.934" r="3.757"/>
<circle cx="1439.813" cy="528.072" r="3.662"/>
<circle cx="1446.856" cy="520.078" r="3.813"/>
<circle cx="1452.783" cy="513.245" r="3.949"/>
<circle cx="1456.13" cy="503.551" r="4.032"/>
<circle cx="1461.877" cy="494.261" r="4.101"/>
<circle cx="1470.148" cy="494.141" r="4.183"/>
<circle cx="1478.465" cy="493.673" r="4.238"/>
<circle cx="1482.985" cy="486.141" r="4.279"/>
<circle cx="1487.768" cy="494.823" r="4.279"/>
<circle cx="1496.38" cy="488.791" r="4.334"/>
<circle cx="1495.409" cy="500.278" r="4.32"/>
<circle cx="1488.901" cy="506.432" r="4.265"/>
<circle cx="1488.914" cy="520.289" r="4.197"/>
<circle cx="1484.439" cy="513.806" r="4.196"/>
<circle cx="1478.321" cy="504.094" r="4.21"/>
<circle cx="1467.789" cy="505.11" r="4.142"/>
<circle cx="1462.281" cy="513.737" r="4.045"/>
<circle cx="1473.703" cy="515.282" r="4.142"/>
<circle cx="1476.023" cy="525.069" r="4.101"/>
<circle cx="1478.679" cy="535.249" r="4.032"/>
<circle cx="1485.549" cy="528.003" r="4.114"/>
<circle cx="1496.432" cy="528.195" r="4.155"/>
<circle cx="1500.454" cy="520.064" r="4.224"/>
<circle cx="1500.392" cy="509.886" r="4.279"/>
<circle cx="1510.843" cy="503.8" r="4.333"/>
<circle cx="1503.808" cy="497.219" r="4.334"/>
<circle cx="1513.236" cy="493.194" r="4.361"/>
<circle cx="1505.847" cy="484.999" r="4.361"/>
<circle cx="1498.899" cy="477.619" r="4.348"/>
<circle cx="1494.133" cy="470.189" r="4.347"/>
<circle cx="1502.242" cy="464.262" r="4.361"/>
<circle cx="1508.533" cy="473.426" r="4.375"/>
<circle cx="1515.906" cy="482.473" r="4.375"/>
<circle cx="1524.886" cy="475.99" r="4.375"/>
<circle cx="1526.867" cy="484.167" r="4.375"/>
<circle cx="1524.213" cy="492.534" r="4.375"/>
<circle cx="1521.295" cy="501.736" r="4.348"/>
<circle cx="1515.238" cy="511.329" r="4.306"/>
<circle cx="1509.859" cy="518.352" r="4.266"/>
<circle cx="1514.209" cy="525.684" r="4.238"/>
<circle cx="1516.088" cy="533.475" r="4.169"/>
<circle cx="1504.464" cy="533.39" r="4.156"/>
<circle cx="1494.712" cy="539.199" r="4.073"/>
<circle cx="1488.118" cy="535.748" r="4.073"/>
<circle cx="1489.932" cy="548.422" r="3.936"/>
<circle cx="1500.631" cy="545.094" r="4.032"/>
<circle cx="1494.402" cy="555.422" r="3.881"/>
<circle cx="1498.648" cy="563.938" r="3.757"/>
<circle cx="1504.627" cy="552.737" r="3.95"/>
<circle cx="1510.749" cy="541.863" r="4.087"/>
<circle cx="1515.572" cy="550.342" r="4.018"/>
<circle cx="1509.873" cy="559.906" r="3.867"/>
<circle cx="1515.802" cy="566.604" r="3.744"/>
<circle cx="1514.326" cy="577.553" r="3.482"/>
<circle cx="1503.882" cy="572.153" r="3.579"/>
<circle cx="1503.582" cy="584.232" r="3.263"/>
<circle cx="1515.235" cy="590.659" r="3.14"/>
<circle cx="1507.254" cy="600.089" r="2.742"/>
<circle cx="1497.637" cy="608.265" r="2.385"/>
<circle cx="1504.791" cy="620.728" r="2.014"/>
<circle cx="1485.491" cy="616.611" r="2.083"/>
<circle cx="1476.443" cy="631.448" r="1.671"/>
<circle cx="1457.007" cy="630.393" r="1.63"/>
<circle cx="1446.545" cy="616.329" r="1.85"/>
<circle cx="1432.108" cy="618.458" r="1.685"/>
<circle cx="1429.179" cy="634.661" r="1.424"/>
<circle cx="1446.337" cy="654.061" r="1.246"/>
<circle cx="1419.212" cy="658.784" r="1.136"/>
<circle cx="1417.27" cy="697.941" r="0.971"/>
<circle cx="1446.341" cy="749.523" r="0.889"/>
<circle cx="1463.367" cy="693.148" r="1.013"/>
<circle cx="1475.58" cy="660.563" r="1.218"/>
<circle cx="1494.895" cy="642.768" r="1.479"/>
<circle cx="1516.393" cy="639.469" r="1.575"/>
<circle cx="1514.64" cy="670.536" r="1.149"/>
<circle cx="1511.836" cy="716.446" r="0.943"/>
<circle cx="1568.975" cy="753.021" r="0.889"/>
<circle cx="1642.43" cy="734.271" r="0.93"/>
<circle cx="1724.413" cy="759.635" r="0.889"/>
<circle cx="1748.114" cy="710.694" r="0.957"/>
<circle cx="1749.646" cy="668.293" r="1.122"/>
<circle cx="1786.422" cy="690.484" r="0.985"/>
<circle cx="1785.248" cy="656.131" r="1.15"/>
<circle cx="1818.53" cy="650.559" r="1.081"/>
<circle cx="1833.458" cy="623.212" r="1.136"/>
<circle cx="1845.393" cy="596.506" r="1.177"/>
<circle cx="1846.024" cy="565.513" r="1.287"/>
<circle cx="1821.402" cy="572.901" r="1.603"/>
<circle cx="1820.019" cy="545.998" r="1.822"/>
<circle cx="1804.488" cy="553.927" r="2.152"/>
<circle cx="1802.32" cy="568.249" r="2"/>
<circle cx="1788.587" cy="566.018" r="2.426"/>
<circle cx="1775.683" cy="571.908" r="2.632"/>
<circle cx="1764.253" cy="580.036" r="2.673"/>
<circle cx="1753.441" cy="569.372" r="3.14"/>
<circle cx="1744.332" cy="578.504" r="3.085"/>
<circle cx="1739.025" cy="567.16" r="3.4"/>
<circle cx="1728.091" cy="567.51" r="3.524"/>
<circle cx="1725.929" cy="579.724" r="3.263"/>
<circle cx="1716.979" cy="571.247" r="3.51"/>
<circle cx="1705.178" cy="572.384" r="3.552"/>
<circle cx="1700.449" cy="582.401" r="3.332"/>
<circle cx="1691.379" cy="578.068" r="3.469"/>
<circle cx="1684.675" cy="586.998" r="3.208"/>
<circle cx="1687.596" cy="598.628" r="2.838"/>
<circle cx="1676.126" cy="599.403" r="2.824"/>
<circle cx="1664.12" cy="608.662" r="2.453"/>
<circle cx="1650.568" cy="614.011" r="2.248"/>
<circle cx="1638.633" cy="605.662" r="2.563"/>
<circle cx="1638.376" cy="594.247" r="3.017"/>
<circle cx="1651.997" cy="596.661" r="2.92"/>
<circle cx="1665.691" cy="594.938" r="2.975"/>
<circle cx="1658.801" cy="587.352" r="3.236"/>
<circle cx="1655.577" cy="579.193" r="3.483"/>
<circle cx="1651.587" cy="571.95" r="3.661"/>
<circle cx="1644.722" cy="584.384" r="3.332"/>
<circle cx="1631.063" cy="585.427" r="3.291"/>
<circle cx="1615.396" cy="586.656" r="3.291"/>
<circle cx="1622.701" cy="593.814" r="3.017"/>
<circle cx="1623.313" cy="604.247" r="2.604"/>
<circle cx="1628.449" cy="616.885" r="2.166"/>
<circle cx="1637.427" cy="627.125" r="1.85"/>
<circle cx="1648.664" cy="641.085" r="1.548"/>
<circle cx="1664.197" cy="627.65" r="1.85"/>
<circle cx="1679.991" cy="615.843" r="2.207"/>
<circle cx="1695.572" cy="609.588" r="2.357"/>
<circle cx="1702.633" cy="622.284" r="1.959"/>
<circle cx="1712.941" cy="613.827" r="2.179"/>
<circle cx="1709.992" cy="600.144" r="2.659"/>
<circle cx="1698.773" cy="593.746" r="2.961"/>
<circle cx="1711.783" cy="584.801" r="3.194"/>
<circle cx="1721.322" cy="592.334" r="2.879"/>
<circle cx="1725.063" cy="605.725" r="2.371"/>
<circle cx="1742.452" cy="605.216" r="2.261"/>
<circle cx="1733.073" cy="596.816" r="2.618"/>
<circle cx="1736.396" cy="586.694" r="2.934"/>
<circle cx="1752.215" cy="590.92" r="2.563"/>
<circle cx="1757.136" cy="608.775" r="2"/>
<circle cx="1768.856" cy="598.153" r="2.124"/>
<circle cx="1782.558" cy="590.13" r="2.056"/>
<circle cx="1802.305" cy="585.427" r="1.767"/>
<circle cx="1802.117" cy="605.424" r="1.506"/>
<circle cx="1795.359" cy="628.183" r="1.328"/>
<circle cx="1773.847" cy="618.887" r="1.63"/>
<circle cx="1763.103" cy="641.945" r="1.355"/>
<circle cx="1748.526" cy="623.892" r="1.74"/>
<circle cx="1728.677" cy="617.509" r="1.973"/>
<circle cx="1731.471" cy="630.119" r="1.671"/>
<circle cx="1736.269" cy="646.678" r="1.369"/>
<circle cx="1715.119" cy="635.468" r="1.616"/>
<circle cx="1693.982" cy="632.508" r="1.699"/>
<circle cx="1680.262" cy="638.696" r="1.575"/>
<circle cx="1672.917" cy="658.042" r="1.287"/>
<circle cx="1703.832" cy="656.373" r="1.287"/>
<circle cx="1718.685" cy="677.979" r="1.081"/>
<circle cx="1694.068" cy="705.981" r="0.971"/>
<circle cx="1660.835" cy="685.149" r="1.054"/>
<circle cx="1636.434" cy="661.564" r="1.232"/>
<circle cx="1615.408" cy="642.08" r="1.52"/>
<circle cx="1588.265" cy="652.4" r="1.355"/>
<circle cx="1612.419" cy="685.215" r="1.053"/>
<circle cx="1571.537" cy="699.213" r="0.999"/>
<circle cx="1552.352" cy="666.224" r="1.19"/>
<circle cx="1539.051" cy="638.427" r="1.602"/>
<circle cx="1564.053" cy="636.859" r="1.63"/>
<circle cx="1582.312" cy="621.603" r="2"/>
<circle cx="1599.059" cy="621.774" r="2"/>
<circle cx="1614.251" cy="618.386" r="2.124"/>
<circle cx="1608.465" cy="601.137" r="2.769"/>
<circle cx="1593.936" cy="602.865" r="2.659"/>
<circle cx="1583.372" cy="595.358" r="2.975"/>
<circle cx="1575.089" cy="603.148" r="2.66"/>
<circle cx="1564.258" cy="615.21" r="2.207"/>
<circle cx="1547.073" cy="617.973" r="2.124"/>
<circle cx="1548.867" cy="601.79" r="2.714"/>
<circle cx="1534.481" cy="607.82" r="2.508"/>
<circle cx="1524.549" cy="620.877" r="2.042"/>
<circle cx="1518.865" cy="605.352" r="2.536"/>
<circle cx="1529.435" cy="594.767" r="2.961"/>
<circle cx="1524.835" cy="582.956" r="3.346"/>
<circle cx="1534.49" cy="577.46" r="3.51"/>
<circle cx="1526.252" cy="569.185" r="3.702"/>
<circle cx="1522.948" cy="557.02" r="3.922"/>
<circle cx="1533.421" cy="558.862" r="3.881"/>
<circle cx="1540.249" cy="551.223" r="4.004"/>
<circle cx="1548.064" cy="546.31" r="4.073"/>
<circle cx="1558.585" cy="544.805" r="4.087"/>
<circle cx="1553.506" cy="538.133" r="4.156"/>
<circle cx="1558.258" cy="529.958" r="4.224"/>
<circle cx="1562.216" cy="536.748" r="4.169"/>
<circle cx="1568.478" cy="542.716" r="4.086"/>
<circle cx="1571.039" cy="552.438" r="3.991"/>
<circle cx="1558.745" cy="551.614" r="4.018"/>
<circle cx="1561.709" cy="558.309" r="3.922"/>
<circle cx="1557.278" cy="565.326" r="3.799"/>
<circle cx="1548.656" cy="557.755" r="3.922"/>
<circle cx="1539.937" cy="566.356" r="3.757"/>
<circle cx="1550.143" cy="569.525" r="3.689"/>
<circle cx="1545.44" cy="578.484" r="3.524"/>
<circle cx="1540.143" cy="590.226" r="3.167"/>
<circle cx="1551.915" cy="588.683" r="3.195"/>
<circle cx="1557.858" cy="577.818" r="3.51"/>
<circle cx="1562.604" cy="587.871" r="3.235"/>
<circle cx="1561.97" cy="599.453" r="2.81"/>
<circle cx="1572.166" cy="587.639" r="3.236"/>
<circle cx="1581.274" cy="582.254" r="3.415"/>
<circle cx="1578.875" cy="571.884" r="3.662"/>
<circle cx="1569.207" cy="576.995" r="3.552"/>
<circle cx="1565.85" cy="568.987" r="3.716"/>
<circle cx="1570.817" cy="561.952" r="3.84"/>
<circle cx="1579.863" cy="560.417" r="3.867"/>
<circle cx="1588.004" cy="566.175" r="3.771"/>
<circle cx="1593.372" cy="575.801" r="3.579"/>
<circle cx="1591.499" cy="586.553" r="3.291"/>
<circle cx="1602.438" cy="588.673" r="3.194"/>
<circle cx="1606.089" cy="578.685" r="3.483"/>
<circle cx="1616.684" cy="576.48" r="3.551"/>
<circle cx="1625.006" cy="576.65" r="3.551"/>
<circle cx="1633.367" cy="574.134" r="3.606"/>
<circle cx="1642.333" cy="574.701" r="3.579"/>
<circle cx="1638.848" cy="566.263" r="3.771"/>
<circle cx="1646.407" cy="563.375" r="3.813"/>
<circle cx="1655.373" cy="562.387" r="3.84"/>
<circle cx="1661.973" cy="567.863" r="3.744"/>
<circle cx="1668.464" cy="573.415" r="3.593"/>
<circle cx="1666.07" cy="581.486" r="3.4"/>
<circle cx="1674.347" cy="584.886" r="3.318"/>
<circle cx="1680.042" cy="575.376" r="3.551"/>
<circle cx="1674.084" cy="564.998" r="3.785"/>
<circle cx="1664.668" cy="557.291" r="3.936"/>
<circle cx="1674.427" cy="553.714" r="3.963"/>
<circle cx="1668.396" cy="544.811" r="4.086"/>
<circle cx="1658.427" cy="548.056" r="4.032"/>
<circle cx="1652.105" cy="554.392" r="3.977"/>
<circle cx="1643.479" cy="554.053" r="3.977"/>
<circle cx="1646.193" cy="545.725" r="4.073"/>
<circle cx="1656.454" cy="538.227" r="4.155"/>
<circle cx="1646.445" cy="537.35" r="4.156"/>
<circle cx="1643.071" cy="529.176" r="4.238"/>
<circle cx="1652.911" cy="527.636" r="4.237"/>
<circle cx="1660.501" cy="524.817" r="4.251"/>
<circle cx="1662.389" cy="516.638" r="4.307"/>
<circle cx="1669.637" cy="522.659" r="4.279"/>
<circle cx="1671.676" cy="513.666" r="4.32"/>
<circle cx="1670.444" cy="505.224" r="4.348"/>
<circle cx="1673.072" cy="497.925" r="4.361"/>
<circle cx="1667.501" cy="491.648" r="4.375"/>
<circle cx="1676.484" cy="490.001" r="4.375"/>
<circle cx="1690.95" cy="488.175" r="4.361"/>
<circle cx="1700.289" cy="489.345" r="4.348"/>
<circle cx="1707.697" cy="494.832" r="4.306"/>
<circle cx="1716.896" cy="494.268" r="4.265"/>
<circle cx="1713.756" cy="502.426" r="4.265"/>
<circle cx="1710.326" cy="510.61" r="4.251"/>
<circle cx="1713.885" cy="521.633" r="4.169"/>
<circle cx="1705.307" cy="519.488" r="4.224"/>
<circle cx="1701.259" cy="512.06" r="4.265"/>
<circle cx="1693.857" cy="508.64" r="4.306"/>
<circle cx="1702.695" cy="502.607" r="4.307"/>
<circle cx="1693.902" cy="497.848" r="4.348"/>
<circle cx="1683.545" cy="495.365" r="4.361"/>
<circle cx="1686.82" cy="504.678" r="4.333"/>
<circle cx="1678.762" cy="503.776" r="4.348"/>
<circle cx="1680.216" cy="511.746" r="4.32"/>
<circle cx="1687.814" cy="516.068" r="4.279"/>
<circle cx="1680.02" cy="520.535" r="4.265"/>
<circle cx="1675.432" cy="527.658" r="4.224"/>
<circle cx="1665.398" cy="533.82" r="4.183"/>
<circle cx="1674.512" cy="535.383" r="4.169"/>
<circle cx="1679.405" cy="541.04" r="4.114"/>
<circle cx="1684.102" cy="547.769" r="4.046"/>
<circle cx="1685.076" cy="557.58" r="3.895"/>
<circle cx="1684.911" cy="567.052" r="3.716"/>
<circle cx="1694.941" cy="567.434" r="3.702"/>
<circle cx="1698.143" cy="558.713" r="3.826"/>
<circle cx="1694.357" cy="550.252" r="3.991"/>
<circle cx="1696.165" cy="541.057" r="4.086"/>
<circle cx="1688.784" cy="537.211" r="4.142"/>
<circle cx="1683.816" cy="529.784" r="4.21"/>
<circle cx="1690.606" cy="525.85" r="4.224"/>
<circle cx="1696.245" cy="519.898" r="4.251"/>
<circle cx="1698.016" cy="530.853" r="4.169"/>
<circle cx="1707.02" cy="528.004" r="4.156"/>
<circle cx="1706.639" cy="536.879" r="4.1"/>
<circle cx="1704.39" cy="545.573" r="4.004"/>
<circle cx="1708.187" cy="553.515" r="3.895"/>
<circle cx="1709.513" cy="562.667" r="3.744"/>
<circle cx="1720.028" cy="556.781" r="3.771"/>
<circle cx="1731.276" cy="555.113" r="3.716"/>
<circle cx="1733.915" cy="545.372" r="3.813"/>
<circle cx="1729.249" cy="535.688" r="3.963"/>
<circle cx="1723.495" cy="543.633" r="3.922"/>
<circle cx="1714.718" cy="545.36" r="3.949"/>
<circle cx="1716.646" cy="534.334" r="4.073"/>
<circle cx="1720.426" cy="526.71" r="4.101"/>
<circle cx="1728.105" cy="526.935" r="4.045"/>
<circle cx="1733.537" cy="517.885" r="4.059"/>
<circle cx="1724.715" cy="517.945" r="4.128"/>
<circle cx="1718.509" cy="513.326" r="4.197"/>
<circle cx="1721.869" cy="505.936" r="4.21"/>
<circle cx="1731.164" cy="509.323" r="4.142"/>
<circle cx="1741.357" cy="509.989" r="4.032"/>
<circle cx="1746.642" cy="501.409" r="3.991"/>
<circle cx="1745.873" cy="490.261" r="4.045"/>
<circle cx="1755.584" cy="486.679" r="3.922"/>
<circle cx="1748.058" cy="479.37" r="4.032"/>
<circle cx="1737.929" cy="477.964" r="4.142"/>
<circle cx="1732.381" cy="482.874" r="4.169"/>
<circle cx="1735.508" cy="490.601" r="4.142"/>
<circle cx="1736.141" cy="499.497" r="4.114"/>
<circle cx="1728.604" cy="501.639" r="4.169"/>
<circle cx="1724.56" cy="496.53" r="4.224"/>
<circle cx="1724.896" cy="489.32" r="4.224"/>
<circle cx="1722.764" cy="482.298" r="4.251"/>
<circle cx="1713.155" cy="486.764" r="4.306"/>
<circle cx="1705.465" cy="481.039" r="4.333"/>
<circle cx="1715.172" cy="477.814" r="4.292"/>
<circle cx="1715.326" cy="469.66" r="4.307"/>
<circle cx="1724.389" cy="466.161" r="4.251"/>
<circle cx="1726.378" cy="474.516" r="4.238"/>
<circle cx="1734.135" cy="467.572" r="4.169"/>
<circle cx="1743.097" cy="471.497" r="4.101"/>
<circle cx="1742.794" cy="463.657" r="4.101"/>
<circle cx="1746.982" cy="458.372" r="4.073"/>
<circle cx="1753.447" cy="458.195" r="3.977"/>
<circle cx="1758.836" cy="462.405" r="3.895"/>
<circle cx="1766.706" cy="455.05" r="3.744"/>
<circle cx="1758.9" cy="453.071" r="3.895"/>
<circle cx="1756.232" cy="444.668" r="3.936"/>
<circle cx="1750.992" cy="452.483" r="4.018"/>
<circle cx="1749.633" cy="447.98" r="4.032"/>
<circle cx="1744.317" cy="448.238" r="4.087"/>
<circle cx="1749.103" cy="441.28" r="4.032"/>
<circle cx="1754.482" cy="435.074" r="3.949"/>
<circle cx="1744.64" cy="433.642" r="4.087"/>
<circle cx="1737.018" cy="428.353" r="4.155"/>
<circle cx="1727.935" cy="430.05" r="4.238"/>
<circle cx="1724.938" cy="422.949" r="4.251"/>
<circle cx="1724.043" cy="412.972" r="4.251"/>
<circle cx="1714.744" cy="412.362" r="4.32"/>
<circle cx="1724.863" cy="401.629" r="4.251"/>
<circle cx="1732.302" cy="406.026" r="4.197"/>
<circle cx="1733.783" cy="418" r="4.183"/>
<circle cx="1738.788" cy="409.279" r="4.142"/>
<circle cx="1747.003" cy="403.458" r="4.073"/>
<circle cx="1741.225" cy="396.923" r="4.101"/>
<circle cx="1733.827" cy="397.101" r="4.183"/>
<circle cx="1728.753" cy="391.572" r="4.224"/>
<circle cx="1715.915" cy="401.451" r="4.306"/>
<circle cx="1707.697" cy="394.899" r="4.334"/>
<circle cx="1703.568" cy="401.931" r="4.348"/>
<circle cx="1696.054" cy="395.245" r="4.375"/>
<circle cx="1693.856" cy="403.656" r="4.375"/>
<circle cx="1697.49" cy="412.649" r="4.375"/>
<circle cx="1706.197" cy="409.865" r="4.348"/>
<circle cx="1706.252" cy="420.37" r="4.347"/>
<circle cx="1703.549" cy="429.789" r="4.347"/>
<circle cx="1715.889" cy="424.388" r="4.306"/>
<circle cx="1717.849" cy="437.652" r="4.293"/>
<circle cx="1711.359" cy="433.074" r="4.32"/>
<circle cx="1703.994" cy="439.923" r="4.348"/>
<circle cx="1711.051" cy="444.638" r="4.334"/>
<circle cx="1718.994" cy="448.833" r="4.292"/>
<circle cx="1726.852" cy="446.736" r="4.238"/>
<circle cx="1724.67" cy="437.456" r="4.251"/>
<circle cx="1732.938" cy="437.26" r="4.183"/>
<circle cx="1737.18" cy="441.299" r="4.155"/>
<circle cx="1742.287" cy="442.919" r="4.087"/>
<circle cx="1733.98" cy="449.524" r="4.183"/>
<circle cx="1741.229" cy="452.447" r="4.101"/>
<circle cx="1737.504" cy="458.287" r="4.155"/>
<circle cx="1729.358" cy="457.79" r="4.224"/>
<circle cx="1720.263" cy="457.861" r="4.279"/>
<circle cx="1711.313" cy="462.184" r="4.333"/>
<circle cx="1709.983" cy="453.875" r="4.333"/>
<circle cx="1701.197" cy="451.507" r="4.361"/>
<circle cx="1690.925" cy="451.012" r="4.375"/>
<circle cx="1692.301" cy="459.794" r="4.375"/>
<circle cx="1688.686" cy="467.858" r="4.375"/>
<circle cx="1700.852" cy="463.093" r="4.361"/>
<circle cx="1704.398" cy="471.489" r="4.348"/>
<circle cx="1694.875" cy="477.33" r="4.375"/>
<circle cx="1682.537" cy="474.734" r="4.375"/>
<circle cx="1684.182" cy="483.448" r="4.375"/>
<circle cx="1675.166" cy="481.562" r="4.375"/>
<circle cx="1667.332" cy="482.931" r="4.375"/>
<circle cx="1658.316" cy="490.552" r="4.375"/>
<circle cx="1647.46" cy="489.405" r="4.375"/>
<circle cx="1652.544" cy="482.747" r="4.375"/>
<circle cx="1660.702" cy="480.989" r="4.375"/>
<circle cx="1655.007" cy="474.605" r="4.375"/>
<circle cx="1646.32" cy="476.266" r="4.375"/>
<circle cx="1638.541" cy="474.199" r="4.375"/>
<circle cx="1628.328" cy="473.92" r="4.375"/>
<circle cx="1621.282" cy="478.923" r="4.375"/>
<circle cx="1618.87" cy="468.918" r="4.375"/>
<circle cx="1608.621" cy="467.665" r="4.375"/>
<circle cx="1610.589" cy="475.293" r="4.375"/>
<circle cx="1612.507" cy="483.095" r="4.375"/>
<circle cx="1602.786" cy="484.043" r="4.375"/>
<circle cx="1600.521" cy="475.203" r="4.375"/>
<circle cx="1592.291" cy="471.57" r="4.375"/>
<circle cx="1585.131" cy="465.523" r="4.375"/>
<circle cx="1578.783" cy="459.106" r="4.375"/>
<circle cx="1591.71" cy="460.664" r="4.375"/>
<circle cx="1598.724" cy="466.294" r="4.375"/>
<circle cx="1602.868" cy="461.126" r="4.375"/>
<circle cx="1607.857" cy="457.265" r="4.375"/>
<circle cx="1613.908" cy="461.278" r="4.375"/>
<circle cx="1619.33" cy="457.591" r="4.375"/>
<circle cx="1626.259" cy="463.04" r="4.375"/>
<circle cx="1633.943" cy="467.144" r="4.375"/>
<circle cx="1643.496" cy="465.24" r="4.375"/>
<circle cx="1653.703" cy="466.946" r="4.375"/>
<circle cx="1649.937" cy="459.462" r="4.375"/>
<circle cx="1654.96" cy="452.892" r="4.375"/>
<circle cx="1660.865" cy="457.186" r="4.375"/>
<circle cx="1662.947" cy="464.451" r="4.375"/>
<circle cx="1662.937" cy="471.915" r="4.375"/>
<circle cx="1670.725" cy="473.766" r="4.375"/>
<circle cx="1676.324" cy="467.114" r="4.375"/>
<circle cx="1670.717" cy="459.903" r="4.375"/>
<circle cx="1666.872" cy="451.084" r="4.375"/>
<circle cx="1680.745" cy="457.74" r="4.375"/>
<circle cx="1682.991" cy="447.357" r="4.375"/>
<circle cx="1674.414" cy="447.243" r="4.375"/>
<circle cx="1667.297" cy="440.886" r="4.375"/>
<circle cx="1672.107" cy="433.931" r="4.375"/>
<circle cx="1680.442" cy="437.986" r="4.375"/>
<circle cx="1689.363" cy="438.544" r="4.375"/>
<circle cx="1696.383" cy="442.448" r="4.375"/>
<circle cx="1695.197" cy="431.031" r="4.375"/>
<circle cx="1696.299" cy="421.694" r="4.375"/>
<circle cx="1686.344" cy="428.705" r="4.375"/>
<circle cx="1687.892" cy="420.723" r="4.375"/>
<circle cx="1679.811" cy="418.494" r="4.375"/>
<circle cx="1687.807" cy="412.805" r="4.375"/>
<circle cx="1685.573" cy="405.516" r="4.375"/>
<circle cx="1677.666" cy="406.578" r="4.375"/>
<circle cx="1667.027" cy="406.383" r="4.375"/>
<circle cx="1673.15" cy="398.788" r="4.375"/>
<circle cx="1683.827" cy="396.722" r="4.375"/>
<circle cx="1689.704" cy="389.979" r="4.375"/>
<circle cx="1700.821" cy="387.834" r="4.361"/>
<circle cx="1693.551" cy="382.194" r="4.375"/>
<circle cx="1686.728" cy="375.263" r="4.375"/>
<circle cx="1677.091" cy="370.018" r="4.375"/>
<circle cx="1680.435" cy="355.472" r="4.375"/>
<circle cx="1671.709" cy="351.068" r="4.375"/>
<circle cx="1671.694" cy="361.615" r="4.375"/>
<circle cx="1662.4" cy="356.802" r="4.375"/>
<circle cx="1667.849" cy="341.801" r="4.375"/>
<circle cx="1661.416" cy="348.331" r="4.375"/>
<circle cx="1653.186" cy="357.474" r="4.375"/>
<circle cx="1654.01" cy="365.381" r="4.375"/>
<circle cx="1662.402" cy="366.118" r="4.375"/>
<circle cx="1668.552" cy="372.729" r="4.375"/>
<circle cx="1659.552" cy="375.945" r="4.375"/>
<circle cx="1668.193" cy="383.116" r="4.375"/>
<circle cx="1676.764" cy="379.299" r="4.375"/>
<circle cx="1683.357" cy="384.908" r="4.375"/>
<circle cx="1675.358" cy="390.042" r="4.375"/>
<circle cx="1665.553" cy="394.031" r="4.375"/>
<circle cx="1660.235" cy="386.589" r="4.375"/>
<circle cx="1652.395" cy="382.546" r="4.375"/>
<circle cx="1650.031" cy="372.618" r="4.375"/>
<circle cx="1644.571" cy="380.315" r="4.375"/>
<circle cx="1639.838" cy="373.923" r="4.375"/>
<circle cx="1635.998" cy="367.1" r="4.375"/>
<circle cx="1629.963" cy="372.319" r="4.375"/>
<circle cx="1627.666" cy="363.565" r="4.375"/>
<circle cx="1621.304" cy="369.639" r="4.375"/>
<circle cx="1618.336" cy="378.011" r="4.375"/>
<circle cx="1623.438" cy="387.782" r="4.375"/>
<circle cx="1629.023" cy="379.709" r="4.375"/>
<circle cx="1636.104" cy="383.73" r="4.375"/>
<circle cx="1643.724" cy="390.033" r="4.375"/>
<circle cx="1647.561" cy="400.174" r="4.375"/>
<circle cx="1653.004" cy="392.404" r="4.375"/>
<circle cx="1659.037" cy="399.532" r="4.375"/>
<circle cx="1655.716" cy="407.135" r="4.375"/>
<circle cx="1663.649" cy="415.823" r="4.375"/>
<circle cx="1672.834" cy="414.483" r="4.375"/>
<circle cx="1678.069" cy="428.233" r="4.375"/>
<circle cx="1669.709" cy="423.48" r="4.375"/>
<circle cx="1655.168" cy="416.619" r="4.375"/>
<circle cx="1647.313" cy="413.44" r="4.375"/>
<circle cx="1646.824" cy="424.315" r="4.375"/>
<circle cx="1656.861" cy="425.494" r="4.375"/>
<circle cx="1664.195" cy="430.341" r="4.375"/>
<circle cx="1657.709" cy="435.736" r="4.375"/>
<circle cx="1657.819" cy="444.818" r="4.375"/>
<circle cx="1647.982" cy="447.926" r="4.375"/>
<circle cx="1641.445" cy="453.481" r="4.375"/>
<circle cx="1635.563" cy="459.358" r="4.375"/>
<circle cx="1625.851" cy="454.28" r="4.375"/>
<circle cx="1628.211" cy="445.539" r="4.375"/>
<circle cx="1633.228" cy="451.094" r="4.375"/>
<circle cx="1639.574" cy="442.991" r="4.375"/>
<circle cx="1648.799" cy="436.425" r="4.375"/>
<circle cx="1639.699" cy="432.891" r="4.375"/>
<circle cx="1636.109" cy="424.49" r="4.375"/>
<circle cx="1625.486" cy="419.3" r="4.375"/>
<circle cx="1636.386" cy="416.104" r="4.375"/>
<circle cx="1641.564" cy="407.803" r="4.375"/>
<circle cx="1637.36" cy="399.715" r="4.375"/>
<circle cx="1633.336" cy="392.214" r="4.375"/>
<circle cx="1624.752" cy="398.326" r="4.375"/>
<circle cx="1631.492" cy="407.407" r="4.375"/>
<circle cx="1623.351" cy="409.582" r="4.375"/>
<circle cx="1614.836" cy="415.75" r="4.375"/>
<circle cx="1614.962" cy="405.943" r="4.375"/>
<circle cx="1605.195" cy="403.695" r="4.375"/>
<circle cx="1595.49" cy="401.947" r="4.375"/>
<circle cx="1595.534" cy="412.774" r="4.375"/>
<circle cx="1583.914" cy="406.313" r="4.375"/>
<circle cx="1585.854" cy="413.815" r="4.375"/>
<circle cx="1597.664" cy="423.931" r="4.375"/>
<circle cx="1604.526" cy="415.179" r="4.375"/>
<circle cx="1609.16" cy="423.61" r="4.375"/>
<circle cx="1618.281" cy="426.367" r="4.375"/>
<circle cx="1616.729" cy="434.385" r="4.375"/>
<circle cx="1627.754" cy="429.554" r="4.375"/>
<circle cx="1630.861" cy="437.707" r="4.375"/>
<circle cx="1621.525" cy="440.127" r="4.375"/>
<circle cx="1619.238" cy="447.863" r="4.375"/>
<circle cx="1612.648" cy="451.14" r="4.375"/>
<circle cx="1604.65" cy="449.187" r="4.375"/>
<circle cx="1598.012" cy="454.969" r="4.375"/>
<circle cx="1587.85" cy="453.546" r="4.375"/>
<circle cx="1584.177" cy="447.434" r="4.375"/>
<circle cx="1595.18" cy="447.363" r="4.375"/>
<circle cx="1601.492" cy="440.653" r="4.375"/>
<circle cx="1610.85" cy="441.591" r="4.375"/>
<circle cx="1606.452" cy="431.904" r="4.375"/>
<circle cx="1596.382" cy="433.346" r="4.375"/>
<circle cx="1590.325" cy="440.6" r="4.375"/>
<circle cx="1583.093" cy="435.617" r="4.375"/>
<circle cx="1587.71" cy="429.748" r="4.375"/>
<circle cx="1588.064" cy="421.63" r="4.375"/>
<circle cx="1578.564" cy="421.756" r="4.375"/>
<circle cx="1575.953" cy="429.234" r="4.375"/>
<circle cx="1566.447" cy="433.025" r="4.375"/>
<circle cx="1573.964" cy="437.115" r="4.375"/>
<circle cx="1578.952" cy="442.33" r="4.375"/>
<circle cx="1568.52" cy="443.788" r="4.375"/>
<circle cx="1557.278" cy="436.643" r="4.375"/>
<circle cx="1560.253" cy="446.011" r="4.375"/>
<circle cx="1576.249" cy="450.271" r="4.375"/>
<circle cx="1569.378" cy="454.633" r="4.375"/>
<circle cx="1561.593" cy="457.824" r="4.375"/>
<circle cx="1569.025" cy="466.405" r="4.375"/>
<circle cx="1577.275" cy="469.889" r="4.375"/>
<circle cx="1584.812" cy="476.654" r="4.375"/>
<circle cx="1575.648" cy="478.851" r="4.375"/>
<circle cx="1571.094" cy="485.9" r="4.375"/>
<circle cx="1565.07" cy="493.369" r="4.375"/>
<circle cx="1562.255" cy="502.114" r="4.361"/>
<circle cx="1559.879" cy="513.273" r="4.32"/>
<circle cx="1567.033" cy="512.248" r="4.32"/>
<circle cx="1576.258" cy="512.402" r="4.32"/>
<circle cx="1570.926" cy="504.863" r="4.347"/>
<circle cx="1575.207" cy="496.594" r="4.375"/>
<circle cx="1583.12" cy="489.688" r="4.375"/>
<circle cx="1591.618" cy="482.923" r="4.375"/>
<circle cx="1596.602" cy="491.758" r="4.375"/>
<circle cx="1591.729" cy="498.325" r="4.375"/>
<circle cx="1584.683" cy="501.514" r="4.361"/>
<circle cx="1579.475" cy="506.03" r="4.348"/>
<circle cx="1585.307" cy="512.944" r="4.32"/>
<circle cx="1592.815" cy="507.986" r="4.348"/>
<circle cx="1599.676" cy="513.341" r="4.32"/>
<circle cx="1593.054" cy="519.009" r="4.292"/>
<circle cx="1603.306" cy="523.097" r="4.266"/>
<circle cx="1611.024" cy="529.126" r="4.238"/>
<circle cx="1607.91" cy="513.266" r="4.32"/>
<circle cx="1612.365" cy="505.272" r="4.348"/>
<circle cx="1602.276" cy="502.533" r="4.361"/>
<circle cx="1607.551" cy="493.498" r="4.375"/>
<circle cx="1617.903" cy="489.434" r="4.375"/>
<circle cx="1617.213" cy="498.046" r="4.375"/>
<circle cx="1627.993" cy="495.655" r="4.375"/>
<circle cx="1627.52" cy="486.775" r="4.375"/>
<circle cx="1636.271" cy="482.701" r="4.375"/>
<circle cx="1638.572" cy="492.581" r="4.375"/>
<circle cx="1645.252" cy="502.174" r="4.361"/>
<circle cx="1653.417" cy="499.974" r="4.361"/>
<circle cx="1662.393" cy="499.104" r="4.361"/>
<circle cx="1662.857" cy="507.549" r="4.347"/>
<circle cx="1655.431" cy="510.233" r="4.334"/>
<circle cx="1650.317" cy="514.802" r="4.32"/>
<circle cx="1645.468" cy="520.57" r="4.279"/>
<circle cx="1636.982" cy="522.398" r="4.265"/>
<circle cx="1640.272" cy="511.606" r="4.334"/>
<circle cx="1635.265" cy="502.788" r="4.361"/>
<circle cx="1625.052" cy="504.102" r="4.348"/>
<circle cx="1620.109" cy="511.652" r="4.334"/>
<circle cx="1614.176" cy="519.201" r="4.293"/>
<circle cx="1630.169" cy="512.496" r="4.32"/>
<circle cx="1629.729" cy="521.428" r="4.265"/>
<circle cx="1622.155" cy="522.214" r="4.265"/>
<circle cx="1620.443" cy="531.33" r="4.21"/>
<circle cx="1629.804" cy="531.371" r="4.21"/>
<circle cx="1636.883" cy="536.216" r="4.169"/>
<circle cx="1633.79" cy="543.776" r="4.087"/>
<circle cx="1635.776" cy="550.673" r="4.018"/>
<circle cx="1626.779" cy="552.451" r="3.991"/>
<circle cx="1624.746" cy="541.871" r="4.101"/>
<circle cx="1615.79" cy="539.173" r="4.142"/>
<circle cx="1608.775" cy="543.822" r="4.087"/>
<circle cx="1602.592" cy="536.077" r="4.169"/>
<circle cx="1596.447" cy="529.239" r="4.238"/>
<circle cx="1589.538" cy="535.344" r="4.169"/>
<circle cx="1592.683" cy="543.499" r="4.086"/>
<circle cx="1601.195" cy="548.199" r="4.059"/>
<circle cx="1607.382" cy="557.385" r="3.922"/>
<circle cx="1616.06" cy="550.203" r="4.032"/>
<circle cx="1619.807" cy="558.016" r="3.922"/>
<circle cx="1636.662" cy="558.198" r="3.922"/>
<circle cx="1631.057" cy="562.646" r="3.84"/>
<circle cx="1625.313" cy="566.226" r="3.771"/>
<circle cx="1617.407" cy="565.515" r="3.771"/>
<circle cx="1611.065" cy="568.269" r="3.716"/>
<circle cx="1603.371" cy="569.681" r="3.689"/>
<circle cx="1597.846" cy="564.145" r="3.799"/>
<circle cx="1594.374" cy="555.643" r="3.95"/>
<circle cx="1585.188" cy="551.858" r="4.018"/>
<circle cx="1576.999" cy="546.201" r="4.073"/>
<circle cx="1581.609" cy="540.149" r="4.128"/>
<circle cx="1588.386" cy="526.997" r="4.238"/>
<circle cx="1584.513" cy="521.603" r="4.265"/>
<circle cx="1578.761" cy="519.413" r="4.293"/>
<circle cx="1574.811" cy="525.922" r="4.251"/>
<circle cx="1580.471" cy="531.42" r="4.21"/>
<circle cx="1570.899" cy="533.436" r="4.183"/>
<circle cx="1571.421" cy="518.425" r="4.293"/>
<circle cx="1565.617" cy="523.728" r="4.265"/>
<circle cx="1556.197" cy="521.985" r="4.265"/>
<circle cx="1546.417" cy="526.816" r="4.237"/>
<circle cx="1547.383" cy="518.362" r="4.306"/>
<circle cx="1551.754" cy="510.504" r="4.334"/>
<circle cx="1553.273" cy="501.844" r="4.361"/>
<circle cx="1557.977" cy="485.874" r="4.375"/>
<circle cx="1563.004" cy="476.475" r="4.375"/>
<circle cx="1557.47" cy="467.054" r="4.375"/>
<circle cx="1549.846" cy="476.189" r="4.375"/>
<circle cx="1545.881" cy="485.173" r="4.375"/>
<circle cx="1550.73" cy="493.392" r="4.375"/>
<circle cx="1542.91" cy="500.297" r="4.361"/>
<circle cx="1540.974" cy="509.906" r="4.334"/>
<circle cx="1536.381" cy="519.088" r="4.293"/>
<circle cx="1537.435" cy="531.063" r="4.21"/>
<circle cx="1546.274" cy="535.771" r="4.169"/>
<circle cx="1536.73" cy="540.906" r="4.128"/>
<circle cx="1529.941" cy="548.267" r="4.032"/>
<circle cx="1522.131" cy="542.624" r="4.114"/>
<circle cx="1526.787" cy="534.663" r="4.183"/>
<circle cx="1528.502" cy="525.952" r="4.238"/>
<circle cx="1522.9" cy="518.874" r="4.279"/>
<circle cx="1527.713" cy="510.854" r="4.32"/>
<circle cx="1532.066" cy="502.734" r="4.347"/>
<circle cx="1535.808" cy="493.975" r="4.375"/>
<circle cx="1536.286" cy="485.606" r="4.375"/>
<circle cx="1536.771" cy="475.764" r="4.375"/>
<circle cx="1546.182" cy="467.528" r="4.375"/>
<circle cx="1548.5" cy="458.701" r="4.375"/>
<circle cx="1553.591" cy="452.345" r="4.375"/>
<circle cx="1548.67" cy="444.324" r="4.375"/>
<circle cx="1539.097" cy="442.353" r="4.375"/>
<circle cx="1534.1" cy="433.433" r="4.375"/>
<circle cx="1525.379" cy="430.356" r="4.375"/>
<circle cx="1520.688" cy="418.655" r="4.375"/>
<circle cx="1522.56" cy="409.852" r="4.375"/>
<circle cx="1529.863" cy="420.236" r="4.375"/>
<circle cx="1538.812" cy="422.611" r="4.375"/>
<circle cx="1535.306" cy="410.378" r="4.375"/>
<circle cx="1527.823" cy="401.887" r="4.375"/>
<circle cx="1518.837" cy="400.041" r="4.375"/>
<circle cx="1512.05" cy="404.374" r="4.375"/>
<circle cx="1505.35" cy="409.463" r="4.375"/>
<circle cx="1511.477" cy="413.879" r="4.375"/>
<circle cx="1510.286" cy="421.508" r="4.375"/>
<circle cx="1505.354" cy="428.676" r="4.375"/>
<circle cx="1499.296" cy="420.385" r="4.361"/>
<circle cx="1493.582" cy="429.893" r="4.348"/>
<circle cx="1482.979" cy="434.405" r="4.306"/>
<circle cx="1484.326" cy="424.724" r="4.306"/>
<circle cx="1473.375" cy="422.952" r="4.238"/>
<circle cx="1464.48" cy="419.47" r="4.169"/>
<circle cx="1457.244" cy="427.815" r="4.101"/>
<circle cx="1464.805" cy="431.423" r="4.183"/>
<circle cx="1472.742" cy="433.112" r="4.238"/>
<circle cx="1476.02" cy="441.883" r="4.265"/>
<circle cx="1483.353" cy="446.305" r="4.306"/>
<circle cx="1487.994" cy="452.946" r="4.32"/>
<circle cx="1492.555" cy="441.145" r="4.334"/>
<circle cx="1501.741" cy="437.15" r="4.375"/>
<circle cx="1512.443" cy="437.219" r="4.375"/>
<circle cx="1516.804" cy="428.061" r="4.375"/>
<circle cx="1521.373" cy="440.027" r="4.375"/>
<circle cx="1529.278" cy="445.941" r="4.375"/>
<circle cx="1538.783" cy="453.606" r="4.375"/>
<circle cx="1537.266" cy="464.391" r="4.375"/>
<circle cx="1528.306" cy="466.465" r="4.375"/>
<circle cx="1518.708" cy="469.753" r="4.375"/>
<circle cx="1514.276" cy="462.547" r="4.375"/>
<circle cx="1509.692" cy="455.505" r="4.375"/>
<circle cx="1526.317" cy="456.788" r="4.375"/>
<circle cx="1517.639" cy="450.203" r="4.375"/>
<circle cx="1506.618" cy="445.299" r="4.375"/>
<circle cx="1502.129" cy="453.972" r="4.361"/>
<circle cx="1495.985" cy="450.662" r="4.348"/>
<circle cx="1491.468" cy="461.069" r="4.334"/>
<circle cx="1484.863" cy="468.759" r="4.307"/>
<circle cx="1480.089" cy="459.074" r="4.292"/>
<circle cx="1473.26" cy="451.748" r="4.238"/>
<circle cx="1466.356" cy="443.17" r="4.196"/>
<circle cx="1457.202" cy="437.489" r="4.1"/>
<circle cx="1447.672" cy="433.932" r="4.005"/>
<circle cx="1446.954" cy="425.647" r="3.977"/>
<circle cx="1441.756" cy="418.045" r="3.895"/>
<circle cx="1453.402" cy="420.097" r="4.059"/>
<circle cx="1455.547" cy="413.255" r="4.087"/>
<circle cx="1450.165" cy="407.742" r="4.032"/>
<circle cx="1441.647" cy="407.89" r="3.895"/>
<circle cx="1431.276" cy="396.237" r="3.689"/>
<circle cx="1441.089" cy="391.77" r="3.895"/>
<circle cx="1445.219" cy="399.281" r="3.963"/>
<circle cx="1452.491" cy="392.624" r="4.045"/>
<circle cx="1459.373" cy="385.185" r="4.128"/>
<circle cx="1467.423" cy="387.409" r="4.21"/>
<circle cx="1475.209" cy="388.974" r="4.251"/>
<circle cx="1479.147" cy="381.644" r="4.279"/>
<circle cx="1483.119" cy="376.229" r="4.306"/>
<circle cx="1469.431" cy="378.968" r="4.21"/>
<circle cx="1466.886" cy="370.289" r="4.196"/>
<circle cx="1475.341" cy="371.023" r="4.265"/>
<circle cx="1480.098" cy="362.94" r="4.292"/>
<circle cx="1482.547" cy="355.563" r="4.307"/>
<circle cx="1486.518" cy="348.613" r="4.32"/>
<circle cx="1479.338" cy="338.098" r="4.292"/>
<circle cx="1486.368" cy="339.973" r="4.32"/>
<circle cx="1493.109" cy="341.47" r="4.347"/>
<circle cx="1500.626" cy="339.787" r="4.361"/>
<circle cx="1507.598" cy="335.185" r="4.375"/>
<circle cx="1502.186" cy="328.894" r="4.361"/>
<circle cx="1501.078" cy="321.126" r="4.361"/>
<circle cx="1510.354" cy="324.787" r="4.375"/>
<circle cx="1518.001" cy="321.517" r="4.375"/>
<circle cx="1522.838" cy="327.905" r="4.375"/>
<circle cx="1516.228" cy="333.847" r="4.375"/>
<circle cx="1513.251" cy="343.392" r="4.375"/>
<circle cx="1505.864" cy="346.794" r="4.375"/>
<circle cx="1501.285" cy="353.838" r="4.375"/>
<circle cx="1495.598" cy="348.827" r="4.347"/>
<circle cx="1491.508" cy="356.852" r="4.334"/>
<circle cx="1490.748" cy="364.401" r="4.334"/>
<circle cx="1485.244" cy="369.213" r="4.32"/>
<circle cx="1491.394" cy="376.247" r="4.334"/>
<circle cx="1491.917" cy="384.031" r="4.334"/>
<circle cx="1501.941" cy="383.017" r="4.375"/>
<circle cx="1497.459" cy="390.714" r="4.361"/>
<circle cx="1485.988" cy="389.971" r="4.32"/>
<circle cx="1491.277" cy="399.756" r="4.333"/>
<circle cx="1483.914" cy="406.089" r="4.307"/>
<circle cx="1479.963" cy="397.317" r="4.292"/>
<circle cx="1470.498" cy="399.635" r="4.224"/>
<circle cx="1462.547" cy="394.023" r="4.155"/>
<circle cx="1458.196" cy="401.755" r="4.114"/>
<circle cx="1464.114" cy="409.113" r="4.169"/>
<circle cx="1473.236" cy="410.01" r="4.238"/>
<circle cx="1480.592" cy="415.465" r="4.293"/>
<circle cx="1490.089" cy="415.865" r="4.334"/>
<circle cx="1496.652" cy="410.259" r="4.348"/>
<circle cx="1500.944" cy="402.948" r="4.375"/>
<circle cx="1501.544" cy="396.264" r="4.375"/>
<circle cx="1509.656" cy="394.938" r="4.375"/>
<circle cx="1510.594" cy="386.044" r="4.375"/>
<circle cx="1512.255" cy="376.546" r="4.375"/>
<circle cx="1508.791" cy="367.766" r="4.375"/>
<circle cx="1501.617" cy="375.05" r="4.375"/>
<circle cx="1497.047" cy="369.191" r="4.361"/>
<circle cx="1500.651" cy="361.808" r="4.361"/>
<circle cx="1509.492" cy="356.84" r="4.375"/>
<circle cx="1517.438" cy="363.02" r="4.375"/>
<circle cx="1522.824" cy="370.897" r="4.375"/>
<circle cx="1533.345" cy="370.668" r="4.375"/>
<circle cx="1541.284" cy="366.066" r="4.375"/>
<circle cx="1544.068" cy="378.837" r="4.375"/>
<circle cx="1541.23" cy="389.075" r="4.375"/>
<circle cx="1532.828" cy="381.538" r="4.375"/>
<circle cx="1521.901" cy="381.162" r="4.375"/>
<circle cx="1519.274" cy="390.977" r="4.375"/>
<circle cx="1528.922" cy="391.166" r="4.375"/>
<circle cx="1536.434" cy="398.283" r="4.375"/>
<circle cx="1544.727" cy="402.179" r="4.375"/>
<circle cx="1555.705" cy="403.911" r="4.375"/>
<circle cx="1546.686" cy="411.55" r="4.375"/>
<circle cx="1556.251" cy="416.435" r="4.375"/>
<circle cx="1547.826" cy="421.988" r="4.375"/>
<circle cx="1546.318" cy="432.903" r="4.375"/>
<circle cx="1557.078" cy="426.878" r="4.375"/>
<circle cx="1566.865" cy="422.511" r="4.375"/>
<circle cx="1573.77" cy="413.651" r="4.375"/>
<circle cx="1563.638" cy="411.365" r="4.375"/>
<circle cx="1569.052" cy="403.177" r="4.375"/>
<circle cx="1577.413" cy="400.634" r="4.375"/>
<circle cx="1588.468" cy="394.784" r="4.375"/>
<circle cx="1578.94" cy="390.195" r="4.375"/>
<circle cx="1568.145" cy="390.272" r="4.375"/>
<circle cx="1561.823" cy="396.419" r="4.375"/>
<circle cx="1550.023" cy="394.147" r="4.375"/>
<circle cx="1554.912" cy="387.122" r="4.375"/>
<circle cx="1573.497" cy="381.116" r="4.375"/>
<circle cx="1568.547" cy="372.369" r="4.375"/>
<circle cx="1562.977" cy="381.021" r="4.375"/>
<circle cx="1554.691" cy="376.764" r="4.375"/>
<circle cx="1557.93" cy="367.705" r="4.375"/>
<circle cx="1549.306" cy="368.455" r="4.375"/>
<circle cx="1548.594" cy="356.945" r="4.375"/>
<circle cx="1537.878" cy="356.943" r="4.375"/>
<circle cx="1530.483" cy="349.214" r="4.375"/>
<circle cx="1527.641" cy="359.478" r="4.375"/>
<circle cx="1518.041" cy="352.997" r="4.375"/>
<circle cx="1522.055" cy="345.905" r="4.375"/>
<circle cx="1524.328" cy="338.904" r="4.375"/>
<circle cx="1528.553" cy="333.112" r="4.375"/>
<circle cx="1533.984" cy="340.119" r="4.375"/>
<circle cx="1539.706" cy="346.999" r="4.375"/>
<circle cx="1547.145" cy="346.145" r="4.375"/>
<circle cx="1554.036" cy="345.954" r="4.375"/>
<circle cx="1567.813" cy="341.914" r="4.375"/>
<circle cx="1573.276" cy="346.689" r="4.375"/>
<circle cx="1566.523" cy="350.81" r="4.375"/>
<circle cx="1560.516" cy="348.401" r="4.375"/>
<circle cx="1557.387" cy="356.915" r="4.375"/>
<circle cx="1564.048" cy="363.922" r="4.375"/>
<circle cx="1566.83" cy="357.672" r="4.375"/>
<circle cx="1573.416" cy="363.463" r="4.375"/>
<circle cx="1579.447" cy="369.337" r="4.375"/>
<circle cx="1583.031" cy="378.066" r="4.375"/>
<circle cx="1591.201" cy="383.836" r="4.375"/>
<circle cx="1600.97" cy="390.115" r="4.375"/>
<circle cx="1613.357" cy="396.01" r="4.375"/>
<circle cx="1611.964" cy="386.477" r="4.375"/>
<circle cx="1606.285" cy="377.569" r="4.375"/>
<circle cx="1595.912" cy="374.688" r="4.375"/>
<circle cx="1601.931" cy="366.426" r="4.375"/>
<circle cx="1611.917" cy="367.688" r="4.375"/>
<circle cx="1603.223" cy="357.748" r="4.375"/>
<circle cx="1610.874" cy="356.736" r="4.375"/>
<circle cx="1618.871" cy="360.522" r="4.375"/>
<circle cx="1625.123" cy="355.008" r="4.375"/>
<circle cx="1632.238" cy="353.332" r="4.375"/>
<circle cx="1635.623" cy="359.613" r="4.375"/>
<circle cx="1644.27" cy="364.882" r="4.375"/>
<circle cx="1644.879" cy="356.896" r="4.375"/>
<circle cx="1651.533" cy="349.389" r="4.375"/>
<circle cx="1646.519" cy="342.245" r="4.375"/>
<circle cx="1656.063" cy="340.468" r="4.375"/>
<circle cx="1662.304" cy="332.958" r="4.375"/>
<circle cx="1654.177" cy="329.991" r="4.375"/>
<circle cx="1648.172" cy="333.561" r="4.375"/>
<circle cx="1641.004" cy="332.454" r="4.375"/>
<circle cx="1635.787" cy="336.674" r="4.375"/>
<circle cx="1638.934" cy="342.666" r="4.375"/>
<circle cx="1640.844" cy="350.909" r="4.375"/>
<circle cx="1632.871" cy="346.311" r="4.375"/>
<circle cx="1624.657" cy="346.147" r="4.375"/>
<circle cx="1628.083" cy="339.109" r="4.375"/>
<circle cx="1631.175" cy="331.381" r="4.375"/>
<circle cx="1627.135" cy="325.343" r="4.375"/>
<circle cx="1618.279" cy="325.179" r="4.375"/>
<circle cx="1624.595" cy="318.019" r="4.375"/>
<circle cx="1625.193" cy="309.197" r="4.375"/>
<circle cx="1631.706" cy="302.593" r="4.375"/>
<circle cx="1641.375" cy="308.768" r="4.375"/>
<circle cx="1641.333" cy="317.451" r="4.375"/>
<circle cx="1632.944" cy="314.449" r="4.375"/>
<circle cx="1635.665" cy="324.206" r="4.375"/>
<circle cx="1645.513" cy="324.752" r="4.375"/>
<circle cx="1650.648" cy="316.261" r="4.375"/>
<circle cx="1655.731" cy="306.818" r="4.375"/>
<circle cx="1647.934" cy="303.095" r="4.375"/>
<circle cx="1640.743" cy="297.798" r="4.361"/>
<circle cx="1643.32" cy="288.72" r="4.32"/>
<circle cx="1646.126" cy="279.655" r="4.279"/>
<circle cx="1653.156" cy="276.197" r="4.265"/>
<circle cx="1637.71" cy="276.021" r="4.265"/>
<circle cx="1642.346" cy="268.664" r="4.21"/>
<circle cx="1651.773" cy="266.023" r="4.183"/>
<circle cx="1645.83" cy="258.324" r="4.101"/>
<circle cx="1637.262" cy="259.543" r="4.114"/>
<circle cx="1630.674" cy="266.759" r="4.197"/>
<circle cx="1630.727" cy="253.991" r="4.059"/>
<circle cx="1637.972" cy="245.111" r="3.936"/>
<circle cx="1637.02" cy="235.827" r="3.771"/>
<circle cx="1627.368" cy="236.189" r="3.799"/>
<circle cx="1622.302" cy="229.219" r="3.634"/>
<circle cx="1612.854" cy="228.125" r="3.634"/>
<circle cx="1604.311" cy="223.72" r="3.51"/>
<circle cx="1598.822" cy="215.961" r="3.291"/>
<circle cx="1603.531" cy="205.455" r="2.975"/>
<circle cx="1612.286" cy="213.201" r="3.208"/>
<circle cx="1620.974" cy="219.213" r="3.387"/>
<circle cx="1631.193" cy="215.32" r="3.291"/>
<circle cx="1632.89" cy="226.074" r="3.565"/>
<circle cx="1645.415" cy="229.708" r="3.662"/>
<circle cx="1641.77" cy="219.79" r="3.387"/>
<circle cx="1651.018" cy="215.79" r="3.291"/>
<circle cx="1655.28" cy="224.833" r="3.538"/>
<circle cx="1657.394" cy="233.818" r="3.743"/>
<circle cx="1648.406" cy="239.454" r="3.853"/>
<circle cx="1645.456" cy="249.266" r="4.004"/>
<circle cx="1654.455" cy="253.62" r="4.059"/>
<circle cx="1658.146" cy="244.866" r="3.936"/>
<circle cx="1666.611" cy="236.317" r="3.799"/>
<circle cx="1670.137" cy="244.706" r="3.936"/>
<circle cx="1678.296" cy="238.802" r="3.839"/>
<circle cx="1676.344" cy="229.599" r="3.647"/>
<circle cx="1667.49" cy="226.252" r="3.565"/>
<circle cx="1663.545" cy="217.854" r="3.359"/>
<circle cx="1660.943" cy="208.621" r="3.071"/>
<circle cx="1650.111" cy="205.47" r="2.975"/>
<circle cx="1638.641" cy="207.126" r="3.03"/>
<circle cx="1624.57" cy="205.889" r="2.975"/>
<circle cx="1613.235" cy="199.346" r="2.742"/>
<circle cx="1622.673" cy="190.993" r="2.426"/>
<circle cx="1634.183" cy="193.909" r="2.495"/>
<circle cx="1645.041" cy="194.814" r="2.549"/>
<circle cx="1656.759" cy="194.594" r="2.495"/>
<circle cx="1666.457" cy="198.362" r="2.673"/>
<circle cx="1676.678" cy="196.927" r="2.604"/>
<circle cx="1689.1" cy="204.143" r="2.893"/>
<circle cx="1683.821" cy="213.456" r="3.222"/>
<circle cx="1673.674" cy="207.751" r="3.016"/>
<circle cx="1674.771" cy="218.211" r="3.345"/>
<circle cx="1684.936" cy="225.152" r="3.524"/>
<circle cx="1688.146" cy="235.408" r="3.744"/>
<circle cx="1685.531" cy="246.613" r="3.936"/>
<circle cx="1692.78" cy="246.323" r="3.922"/>
<circle cx="1700.168" cy="249.163" r="3.95"/>
<circle cx="1693.037" cy="256.125" r="4.045"/>
<circle cx="1683.815" cy="260.052" r="4.114"/>
<circle cx="1678.521" cy="250.412" r="4.004"/>
<circle cx="1674.881" cy="258.786" r="4.114"/>
<circle cx="1666.674" cy="253.212" r="4.045"/>
<circle cx="1659.637" cy="259.655" r="4.128"/>
<circle cx="1664.014" cy="265.528" r="4.183"/>
<circle cx="1671.624" cy="266.495" r="4.169"/>
<circle cx="1678.217" cy="271.49" r="4.21"/>
<circle cx="1685.938" cy="270.756" r="4.21"/>
<circle cx="1692.477" cy="275.326" r="4.224"/>
<circle cx="1685.053" cy="281.302" r="4.251"/>
<circle cx="1676.201" cy="281.844" r="4.279"/>
<circle cx="1668.485" cy="276.638" r="4.251"/>
<circle cx="1660.123" cy="273.198" r="4.224"/>
<circle cx="1662.3" cy="284.899" r="4.306"/>
<circle cx="1670.762" cy="289.814" r="4.334"/>
<circle cx="1653.691" cy="286.701" r="4.32"/>
<circle cx="1653.029" cy="295.567" r="4.348"/>
<circle cx="1663.151" cy="297.198" r="4.348"/>
<circle cx="1667.622" cy="306.587" r="4.375"/>
<circle cx="1662.029" cy="314.124" r="4.375"/>
<circle cx="1657.29" cy="322.546" r="4.375"/>
<circle cx="1665.421" cy="323.36" r="4.375"/>
<circle cx="1672.299" cy="323.034" r="4.375"/>
<circle cx="1678.901" cy="326.202" r="4.375"/>
<circle cx="1687.493" cy="327.815" r="4.375"/>
<circle cx="1690.851" cy="337.971" r="4.375"/>
<circle cx="1681.734" cy="335.212" r="4.375"/>
<circle cx="1671.766" cy="333.652" r="4.375"/>
<circle cx="1679.053" cy="343.813" r="4.375"/>
<circle cx="1688.135" cy="347.506" r="4.375"/>
<circle cx="1698.729" cy="340.48" r="4.361"/>
<circle cx="1702.21" cy="346.471" r="4.361"/>
<circle cx="1695.548" cy="351.092" r="4.375"/>
<circle cx="1698.681" cy="359.255" r="4.361"/>
<circle cx="1689.651" cy="357.911" r="4.375"/>
<circle cx="1683.75" cy="365.209" r="4.375"/>
<circle cx="1692.521" cy="367.079" r="4.375"/>
<circle cx="1700.471" cy="366.578" r="4.361"/>
<circle cx="1697.238" cy="374.444" r="4.375"/>
<circle cx="1703.874" cy="378.991" r="4.348"/>
<circle cx="1709.516" cy="384.701" r="4.334"/>
<circle cx="1715.023" cy="390.848" r="4.32"/>
<circle cx="1721.88" cy="390.302" r="4.265"/>
<circle cx="1727.731" cy="382.499" r="4.238"/>
<circle cx="1736.072" cy="386.797" r="4.169"/>
<circle cx="1743.603" cy="388.167" r="4.087"/>
<circle cx="1749.948" cy="393.356" r="4.032"/>
<circle cx="1757.332" cy="397.212" r="3.922"/>
<circle cx="1759.052" cy="405.05" r="3.895"/>
<circle cx="1753.316" cy="411.634" r="3.977"/>
<circle cx="1745.521" cy="414.667" r="4.073"/>
<circle cx="1743.757" cy="422.709" r="4.087"/>
<circle cx="1752.127" cy="426.18" r="3.991"/>
<circle cx="1758.615" cy="420.527" r="3.895"/>
<circle cx="1765.066" cy="413.276" r="3.771"/>
<circle cx="1775.939" cy="413.748" r="3.552"/>
<circle cx="1770.778" cy="423.376" r="3.661"/>
<circle cx="1763.738" cy="430.361" r="3.799"/>
<circle cx="1763.77" cy="438.93" r="3.799"/>
<circle cx="1764.738" cy="446.992" r="3.771"/>
<circle cx="1776.678" cy="453.289" r="3.511"/>
<circle cx="1774.119" cy="443.967" r="3.579"/>
<circle cx="1775.405" cy="434.501" r="3.551"/>
<circle cx="1782.515" cy="426.342" r="3.373"/>
<circle cx="1790.235" cy="420.17" r="3.112"/>
<circle cx="1785.118" cy="410.479" r="3.291"/>
<circle cx="1768.804" cy="402.806" r="3.688"/>
<circle cx="1778.588" cy="399.866" r="3.483"/>
<circle cx="1786.341" cy="390.482" r="3.236"/>
<circle cx="1791.265" cy="403.043" r="3.112"/>
<circle cx="1795.454" cy="394.529" r="2.92"/>
<circle cx="1801.8" cy="387.8" r="2.714"/>
<circle cx="1815.049" cy="379.267" r="2.206"/>
<circle cx="1827.036" cy="377.293" r="1.85"/>
<circle cx="1826.755" cy="390.484" r="1.85"/>
<circle cx="1825.597" cy="403.349" r="1.877"/>
<circle cx="1844.004" cy="385.204" r="1.479"/>
<circle cx="1834.246" cy="365.819" r="1.657"/>
<circle cx="1820.949" cy="354.425" r="2"/>
<circle cx="1812.488" cy="365.52" r="2.302"/>
<circle cx="1804.239" cy="376.324" r="2.604"/>
<circle cx="1793.719" cy="377.442" r="3.016"/>
<circle cx="1783.267" cy="378.769" r="3.373"/>
<circle cx="1775.662" cy="386.583" r="3.551"/>
<circle cx="1767.23" cy="391.901" r="3.744"/>
<circle cx="1758.053" cy="387.034" r="3.895"/>
<circle cx="1749.707" cy="382.943" r="4.032"/>
<circle cx="1742.261" cy="378.711" r="4.087"/>
<circle cx="1734.322" cy="376.745" r="4.169"/>
<circle cx="1729.916" cy="368.377" r="4.224"/>
<circle cx="1724.754" cy="359.688" r="4.251"/>
<circle cx="1733.684" cy="360.662" r="4.183"/>
<circle cx="1733.758" cy="351.848" r="4.183"/>
<circle cx="1741.075" cy="347.392" r="4.101"/>
<circle cx="1731.196" cy="342.156" r="4.21"/>
<circle cx="1725.127" cy="349.847" r="4.251"/>
<circle cx="1717.722" cy="354.427" r="4.292"/>
<circle cx="1709.931" cy="355.91" r="4.334"/>
<circle cx="1714.701" cy="363.378" r="4.32"/>
<circle cx="1720.099" cy="368.231" r="4.279"/>
<circle cx="1724.432" cy="374.817" r="4.251"/>
<circle cx="1718.152" cy="380.844" r="4.292"/>
<circle cx="1712.775" cy="374.62" r="4.32"/>
<circle cx="1706.955" cy="370.279" r="4.348"/>
<circle cx="1706.994" cy="362.244" r="4.348"/>
<circle cx="1703.653" cy="353.166" r="4.347"/>
<circle cx="1711.991" cy="348.578" r="4.32"/>
<circle cx="1709.181" cy="342.084" r="4.334"/>
<circle cx="1705.385" cy="334.849" r="4.348"/>
<circle cx="1699.423" cy="331.076" r="4.361"/>
<circle cx="1694.656" cy="326.113" r="4.375"/>
<circle cx="1703.404" cy="322.069" r="4.347"/>
<circle cx="1709.449" cy="327.111" r="4.334"/>
<circle cx="1714.324" cy="319.038" r="4.293"/>
<circle cx="1717.5" cy="308.427" r="4.265"/>
<circle cx="1712.521" cy="297.08" r="4.251"/>
<circle cx="1706.445" cy="303.46" r="4.306"/>
<circle cx="1709.199" cy="310.484" r="4.307"/>
<circle cx="1702.971" cy="314.396" r="4.333"/>
<circle cx="1696.26" cy="307.384" r="4.348"/>
<circle cx="1693.906" cy="317.022" r="4.361"/>
<circle cx="1684.848" cy="317.352" r="4.375"/>
<circle cx="1674.005" cy="315.022" r="4.375"/>
<circle cx="1679.297" cy="308.28" r="4.375"/>
<circle cx="1686.868" cy="305.209" r="4.361"/>
<circle cx="1675.216" cy="299.532" r="4.361"/>
<circle cx="1681.668" cy="292.056" r="4.334"/>
<circle cx="1692.02" cy="288.037" r="4.292"/>
<circle cx="1691.1" cy="297.225" r="4.334"/>
<circle cx="1700.513" cy="298.211" r="4.32"/>
<circle cx="1702.726" cy="291.279" r="4.279"/>
<circle cx="1697.5" cy="279.666" r="4.238"/>
<circle cx="1702.963" cy="283.84" r="4.238"/>
<circle cx="1710.813" cy="286.186" r="4.224"/>
<circle cx="1718.602" cy="287.068" r="4.183"/>
<circle cx="1721.188" cy="296.375" r="4.21"/>
<circle cx="1725.69" cy="303.232" r="4.21"/>
<circle cx="1729.315" cy="310.835" r="4.196"/>
<circle cx="1723.725" cy="317.5" r="4.238"/>
<circle cx="1724.504" cy="326.039" r="4.251"/>
<circle cx="1717.406" cy="329.144" r="4.292"/>
<circle cx="1713.645" cy="335.904" r="4.32"/>
<circle cx="1719.433" cy="343.18" r="4.279"/>
<circle cx="1724.104" cy="335.832" r="4.251"/>
<circle cx="1732.491" cy="331.935" r="4.196"/>
<circle cx="1733.448" cy="322.142" r="4.169"/>
<circle cx="1738.926" cy="315.015" r="4.128"/>
<circle cx="1739.263" cy="305.579" r="4.114"/>
<circle cx="1746.335" cy="298.123" r="3.991"/>
<circle cx="1750.526" cy="310.709" r="3.991"/>
<circle cx="1762.828" cy="309.987" r="3.785"/>
<circle cx="1757.086" cy="300.06" r="3.854"/>
<circle cx="1768.396" cy="298.15" r="3.647"/>
<circle cx="1779.09" cy="303.928" r="3.414"/>
<circle cx="1773.426" cy="312.2" r="3.565"/>
<circle cx="1774.608" cy="322.036" r="3.551"/>
<circle cx="1775.977" cy="332.543" r="3.524"/>
<circle cx="1772.792" cy="340.937" r="3.593"/>
<circle cx="1768.191" cy="350.298" r="3.716"/>
<circle cx="1762.204" cy="357.176" r="3.812"/>
<circle cx="1753.346" cy="357.578" r="3.977"/>
<circle cx="1756.701" cy="347.646" r="3.922"/>
<circle cx="1761.877" cy="340.136" r="3.84"/>
<circle cx="1765.022" cy="330.467" r="3.771"/>
<circle cx="1760.707" cy="320.322" r="3.826"/>
<circle cx="1753.828" cy="329.508" r="3.977"/>
<circle cx="1747.593" cy="320.939" r="4.032"/>
<circle cx="1742" cy="328.994" r="4.114"/>
<circle cx="1740.48" cy="338.398" r="4.128"/>
<circle cx="1750.342" cy="338.897" r="4.005"/>
<circle cx="1748.185" cy="350.368" r="4.06"/>
<circle cx="1742.384" cy="358.841" r="4.087"/>
<circle cx="1739.734" cy="368.757" r="4.128"/>
<circle cx="1750.405" cy="364.648" r="4.019"/>
<circle cx="1748.475" cy="371.906" r="4.06"/>
<circle cx="1755.638" cy="376.392" r="3.936"/>
<circle cx="1761.692" cy="367.714" r="3.84"/>
<circle cx="1765.281" cy="379.551" r="3.771"/>
<circle cx="1773.371" cy="373.011" r="3.606"/>
<circle cx="1773.238" cy="361.56" r="3.606"/>
<circle cx="1778.321" cy="350.15" r="3.483"/>
<circle cx="1786.744" cy="355.939" r="3.236"/>
<circle cx="1785.322" cy="367.062" r="3.291"/>
<circle cx="1798.694" cy="362.706" r="2.81"/>
<circle cx="1796.024" cy="348.227" r="2.92"/>
<circle cx="1786.215" cy="341.14" r="3.236"/>
<circle cx="1786.266" cy="328.613" r="3.236"/>
<circle cx="1797.697" cy="321.634" r="2.865"/>
<circle cx="1787.459" cy="314.193" r="3.181"/>
<circle cx="1791.246" cy="299.049" r="3.043"/>
<circle cx="1802.324" cy="305.175" r="2.618"/>
<circle cx="1817.432" cy="307.687" r="2.096"/>
<circle cx="1813.086" cy="322.471" r="2.248"/>
<circle cx="1819.1" cy="336.992" r="2.083"/>
<circle cx="1800.476" cy="335.11" r="2.769"/>
<circle cx="1807.917" cy="349.07" r="2.453"/>
<circle cx="1838.069" cy="347.734" r="1.575"/>
<circle cx="1837.492" cy="327.503" r="1.602"/>
<circle cx="1836.667" cy="309.461" r="1.588"/>
<circle cx="1817.907" cy="291.382" r="2.055"/>
<circle cx="1818.866" cy="274.387" r="1.959"/>
<circle cx="1813.018" cy="258.163" r="2"/>
<circle cx="1819.262" cy="239.347" r="1.726"/>
<circle cx="1804.73" cy="227.985" r="1.891"/>
<circle cx="1799.612" cy="246.915" r="2.261"/>
<circle cx="1784.294" cy="250.617" r="2.811"/>
<circle cx="1777.753" cy="260.577" r="3.14"/>
<circle cx="1779.1" cy="273.818" r="3.25"/>
<circle cx="1789.249" cy="269.107" r="2.879"/>
<circle cx="1799.02" cy="264.509" r="2.508"/>
<circle cx="1800.659" cy="284.705" r="2.632"/>
<circle cx="1786.908" cy="282.69" r="3.085"/>
<circle cx="1781.171" cy="292.913" r="3.304"/>
<circle cx="1773.438" cy="286.31" r="3.469"/>
<circle cx="1768.275" cy="278.131" r="3.538"/>
<circle cx="1770.065" cy="269" r="3.401"/>
<circle cx="1763.875" cy="262.586" r="3.469"/>
<circle cx="1754.743" cy="262.608" r="3.647"/>
<circle cx="1745.235" cy="255.294" r="3.703"/>
<circle cx="1737.964" cy="261.721" r="3.853"/>
<circle cx="1735.662" cy="253.706" r="3.771"/>
<circle cx="1726.043" cy="253.715" r="3.867"/>
<circle cx="1728.242" cy="261.41" r="3.936"/>
<circle cx="1718.692" cy="259.987" r="3.977"/>
<circle cx="1708.003" cy="263.2" r="4.073"/>
<circle cx="1713.199" cy="268.357" r="4.101"/>
<circle cx="1721.549" cy="269.65" r="4.073"/>
<circle cx="1729.66" cy="269.541" r="4.004"/>
<circle cx="1732.147" cy="278.78" r="4.045"/>
<circle cx="1740.594" cy="278.948" r="3.977"/>
<circle cx="1738.173" cy="270.432" r="3.922"/>
<circle cx="1746.892" cy="266.901" r="3.798"/>
<circle cx="1749.436" cy="276.91" r="3.854"/>
<circle cx="1758.462" cy="274.352" r="3.689"/>
<circle cx="1762.303" cy="287.37" r="3.702"/>
<circle cx="1753.414" cy="287.824" r="3.867"/>
<circle cx="1744.43" cy="287.667" r="3.977"/>
<circle cx="1736.084" cy="288.697" r="4.073"/>
<circle cx="1733.616" cy="297.553" r="4.128"/>
<circle cx="1727.309" cy="288.918" r="4.142"/>
<circle cx="1724.09" cy="279.221" r="4.114"/>
<circle cx="1715.242" cy="277.302" r="4.156"/>
<circle cx="1706.185" cy="275.129" r="4.169"/>
<circle cx="1699.93" cy="267.983" r="4.142"/>
<circle cx="1692.102" cy="264.796" r="4.128"/>
<circle cx="1702.854" cy="257.165" r="4.032"/>
<circle cx="1712.073" cy="254.098" r="3.95"/>
<circle cx="1717.767" cy="248.415" r="3.853"/>
<circle cx="1724.715" cy="245.448" r="3.771"/>
<circle cx="1719.571" cy="238.234" r="3.661"/>
<circle cx="1711.546" cy="240.144" r="3.757"/>
<circle cx="1707.217" cy="246.055" r="3.881"/>
<circle cx="1698.246" cy="239.191" r="3.785"/>
<circle cx="1696.903" cy="228.079" r="3.579"/>
<circle cx="1704.779" cy="232.73" r="3.647"/>
<circle cx="1712.75" cy="230.824" r="3.565"/>
<circle cx="1717.27" cy="223.554" r="3.359"/>
<circle cx="1723.569" cy="229.306" r="3.428"/>
<circle cx="1733.005" cy="227.776" r="3.318"/>
<circle cx="1738.108" cy="236.289" r="3.469"/>
<circle cx="1728.598" cy="237.665" r="3.606"/>
<circle cx="1732.398" cy="246.016" r="3.716"/>
<circle cx="1741.034" cy="245.639" r="3.62"/>
<circle cx="1749.451" cy="242.224" r="3.441"/>
<circle cx="1748.361" cy="231.187" r="3.222"/>
<circle cx="1743.91" cy="222.247" r="3.057"/>
<circle cx="1742.104" cy="211.405" r="2.755"/>
<circle cx="1754.719" cy="209.568" r="2.536"/>
<circle cx="1760.894" cy="221.658" r="2.769"/>
<circle cx="1760.562" cy="233.06" r="3.085"/>
<circle cx="1760.616" cy="243.933" r="3.291"/>
<circle cx="1754.657" cy="252.707" r="3.51"/>
<circle cx="1768.635" cy="251.556" r="3.236"/>
<circle cx="1773.598" cy="236.916" r="2.865"/>
<circle cx="1788.463" cy="236.254" r="2.439"/>
<circle cx="1786.055" cy="222.68" r="2.233"/>
<circle cx="1774.489" cy="217.442" r="2.385"/>
<circle cx="1769.729" cy="202.814" r="2.124"/>
<circle cx="1758.743" cy="189.599" r="1.932"/>
<circle cx="1743.322" cy="197.456" r="2.302"/>
<circle cx="1743.13" cy="180.906" r="1.836"/>
<circle cx="1728.686" cy="172.202" r="1.726"/>
<circle cx="1713.353" cy="167.397" r="1.644"/>
<circle cx="1735.061" cy="148.822" r="1.3"/>
<circle cx="1753.854" cy="163.38" r="1.452"/>
<circle cx="1775.413" cy="176.281" r="1.52"/>
<circle cx="1773.515" cy="147.447" r="1.19"/>
<circle cx="1806.19" cy="145.983" r="1.094"/>
<circle cx="1802.846" cy="178.5" r="1.342"/>
<circle cx="1786.421" cy="195.132" r="1.712"/>
<circle cx="1797.294" cy="208.647" r="1.781"/>
<circle cx="1817.462" cy="208.78" r="1.479"/>
<circle cx="1830.711" cy="170.647" r="1.122"/>
<circle cx="1841.983" cy="200.035" r="1.191"/>
<circle cx="1840.896" cy="230.038" r="1.328"/>
<circle cx="1835.75" cy="257.002" r="1.507"/>
<circle cx="1861.84" cy="266.255" r="1.191"/>
<circle cx="1841.826" cy="287.917" r="1.493"/>
<circle cx="1872.504" cy="303.015" r="1.122"/>
<circle cx="1863.551" cy="335.724" r="1.204"/>
<circle cx="1858.447" cy="362.254" r="1.259"/>
<circle cx="1867.377" cy="385.992" r="1.163"/>
<circle cx="1865.933" cy="409.385" r="1.191"/>
<circle cx="1909.275" cy="410.727" r="0.957"/>
<circle cx="1897.713" cy="371.431" r="0.999"/>
<circle cx="1905.67" cy="336.927" r="0.971"/>
<circle cx="1932.79" cy="295.966" r="0.93"/>
<circle cx="1906.372" cy="252.959" r="0.958"/>
<circle cx="1873.4" cy="223.166" r="1.053"/>
<circle cx="1918.038" cy="184.632" r="0.93"/>
<circle cx="1869.275" cy="169.311" r="0.985"/>
<circle cx="1839.021" cy="122.598" r="0.958"/>
<circle cx="1894.479" cy="106.817" r="0.916"/>
<circle cx="1948.338" cy="42.506" r="0.889"/>
<circle cx="1979.814" cy="113.355" r="0.889"/>
<circle cx="2077.046" cy="88.476" r="0.889"/>
<circle cx="2014.118" cy="205.701" r="0.889"/>
<circle cx="2076.451" cy="278.044" r="0.889"/>
<circle cx="1992.452" cy="368.343" r="0.889"/>
<circle cx="2072.381" cy="433.773" r="0.889"/>
<circle cx="2058.424" cy="574.573" r="0.889"/>
<circle cx="2073.555" cy="719.742" r="0.889"/>
<circle cx="1974.821" cy="713.85" r="0.889"/>
<circle cx="1893.283" cy="730.451" r="0.902"/>
<circle cx="1813.235" cy="743.368" r="0.902"/>
<circle cx="1839.276" cy="684.183" r="0.958"/>
<circle cx="1884.612" cy="646.244" r="0.943"/>
<circle cx="1923.084" cy="603.377" r="0.93"/>
<circle cx="1879.863" cy="561.367" r="1.04"/>
<circle cx="1929.921" cy="531.275" r="0.93"/>
<circle cx="1946.814" cy="464.555" r="0.889"/>
<circle cx="1883.433" cy="446.221" r="1.054"/>
<circle cx="1885.598" cy="487.6" r="1.053"/>
<circle cx="1867.594" cy="522.641" r="1.149"/>
<circle cx="1840.398" cy="538.566" r="1.451"/>
<circle cx="1830.763" cy="517.693" r="1.699"/>
<circle cx="1812.051" cy="526.843" r="2.152"/>
<circle cx="1799.436" cy="539.242" r="2.439"/>
<circle cx="1787.336" cy="548.924" r="2.714"/>
<circle cx="1784.794" cy="534.698" r="2.989"/>
<circle cx="1780.576" cy="522.508" r="3.25"/>
<circle cx="1795.055" cy="523.196" r="2.769"/>
<circle cx="1797.603" cy="509.177" r="2.769"/>
<circle cx="1813.721" cy="509.179" r="2.192"/>
<circle cx="1825.492" cy="494.476" r="1.863"/>
<circle cx="1824.487" cy="477.464" r="1.918"/>
<circle cx="1847.27" cy="500.837" r="1.424"/>
<circle cx="1849.389" cy="476.69" r="1.396"/>
<circle cx="1850.966" cy="453.251" r="1.369"/>
<circle cx="1854.091" cy="428.545" r="1.314"/>
<circle cx="1840.748" cy="407.842" r="1.521"/>
<circle cx="1834.693" cy="431.363" r="1.657"/>
<circle cx="1823.726" cy="421.286" r="1.918"/>
<circle cx="1814.279" cy="410.023" r="2.207"/>
<circle cx="1813.145" cy="393.325" r="2.248"/>
<circle cx="1804.736" cy="402.22" r="2.563"/>
<circle cx="1799.381" cy="413.129" r="2.77"/>
<circle cx="1809.152" cy="422.929" r="2.398"/>
<circle cx="1798.447" cy="428.832" r="2.81"/>
<circle cx="1813.711" cy="439.234" r="2.248"/>
<circle cx="1827.445" cy="446.348" r="1.809"/>
<circle cx="1825.866" cy="461.117" r="1.877"/>
<circle cx="1808.341" cy="463.74" r="2.454"/>
<circle cx="1801.188" cy="452.597" r="2.714"/>
<circle cx="1799.754" cy="440.763" r="2.769"/>
<circle cx="1787.596" cy="437.516" r="3.195"/>
<circle cx="1786.759" cy="448.417" r="3.236"/>
<circle cx="1785.428" cy="459.057" r="3.277"/>
<circle cx="1792.754" cy="465.555" r="3.016"/>
<circle cx="1777.984" cy="467.764" r="3.497"/>
<circle cx="1772.066" cy="461.251" r="3.62"/>
<circle cx="1765.868" cy="467.643" r="3.771"/>
<circle cx="1750.625" cy="467.364" r="4.004"/>
<circle cx="1756.398" cy="472.739" r="3.922"/>
<circle cx="1762.78" cy="477.974" r="3.813"/>
<circle cx="1772.361" cy="478.645" r="3.62"/>
<circle cx="1766.259" cy="488.573" r="3.716"/>
<circle cx="1772.533" cy="497.534" r="3.565"/>
<circle cx="1783.633" cy="486.301" r="3.291"/>
<circle cx="1782.329" cy="476.09" r="3.345"/>
<circle cx="1794.912" cy="476.916" r="2.961"/>
<circle cx="1807.696" cy="479.765" r="2.454"/>
<circle cx="1807.784" cy="494.945" r="2.412"/>
<circle cx="1795.745" cy="491.975" r="2.879"/>
<circle cx="1785.572" cy="498.55" r="3.222"/>
<circle cx="1781.127" cy="509.425" r="3.291"/>
<circle cx="1769.55" cy="515.376" r="3.565"/>
<circle cx="1759.736" cy="510.663" r="3.771"/>
<circle cx="1758.595" cy="499.58" r="3.839"/>
<circle cx="1750.54" cy="515.574" r="3.881"/>
<circle cx="1742.61" cy="521.141" r="3.949"/>
<circle cx="1736.549" cy="527.535" r="3.977"/>
<circle cx="1740.173" cy="535.769" r="3.854"/>
<circle cx="1748.714" cy="530.038" r="3.798"/>
<circle cx="1759.284" cy="525.039" r="3.703"/>
<circle cx="1769.877" cy="531.71" r="3.442"/>
<circle cx="1774.486" cy="543.695" r="3.167"/>
<circle cx="1775.979" cy="557.073" r="2.934"/>
<circle cx="1762.654" cy="560.687" r="3.194"/>
<circle cx="1764.297" cy="546.828" r="3.359"/>
<circle cx="1756.721" cy="537.834" r="3.606"/>
<circle cx="1744.539" cy="544.296" r="3.716"/>
<circle cx="1753.589" cy="550.411" r="3.51"/>
<circle cx="1744.676" cy="557.043" r="3.538"/>
</svg>
